<?xml version="1.0" encoding="UTF-8"?>
<svg xmlns="http://www.w3.org/2000/svg" width="56" height="57" viewBox="0 0 56 57" fill="none">
  <path d="M54.2726 21.5055C49.565 20.5543 44.7957 21.0879 40.0979 23.0925C39.9069 23.1739 39.754 23.3248 39.6698 23.5147C39.5857 23.7045 39.5767 23.9192 39.6447 24.1154L40.1594 25.6017C38.0452 25.6024 36.289 25.0486 34.446 24.4652C33.8854 24.2877 33.3058 24.1043 32.71 23.9345C29.9382 23.1455 27.1448 23.8252 25.0454 25.7992L24.7868 26.0423C21.2011 26.8515 18.7256 26.7999 15.7659 25.8168L16.3551 24.1154C16.4231 23.9192 16.4141 23.7045 16.33 23.5147C16.2459 23.3248 16.0929 23.1739 15.9019 23.0925C11.2041 21.0881 6.43494 20.5541 1.72723 21.5055C1.5416 21.543 1.37467 21.6436 1.25475 21.7902C1.13483 21.9367 1.06932 22.1203 1.06934 22.3097V42.6619C1.06934 43.1151 1.43651 43.4823 1.88965 43.4823H9.06421C9.23475 43.4823 9.40105 43.4291 9.53998 43.3302C9.67891 43.2313 9.78355 43.0915 9.83935 42.9304L10.1619 41.9989C12.8982 43.0282 15.0078 45.2231 16.1847 46.4485C16.2938 46.5624 16.4033 46.6759 16.5133 46.7889L24.9632 55.4473C25.4872 55.9841 26.1938 56.2824 26.9526 56.287L26.9706 56.2871C27.7339 56.2871 28.4492 55.9919 28.9866 55.4544C29.3131 55.1287 29.5548 54.7279 29.6906 54.2872C30.9459 54.9886 32.5653 54.8066 33.631 53.7411C34.1646 53.2085 34.4985 52.5085 34.5766 51.7587C34.8715 51.8417 35.1764 51.8836 35.4828 51.8832C36.3651 51.8832 37.1929 51.5414 37.8135 50.9207C38.4088 50.3255 38.7282 49.5572 38.7721 48.7763C39.8237 48.9942 40.9623 48.6962 41.7772 47.8816C42.9798 46.6791 43.0553 44.8002 42.0012 43.4756C42.2903 43.4183 42.5733 43.3333 42.8461 43.2217C43.6894 42.8776 44.4676 42.4865 45.2203 42.1084C45.4102 42.013 45.5952 41.9203 45.7792 41.8291L46.1606 42.9304C46.2164 43.0915 46.321 43.2313 46.46 43.3302C46.5989 43.4291 46.7652 43.4823 46.9357 43.4823H54.1103C54.5634 43.4823 54.9306 43.1151 54.9306 42.6619V22.3097C54.9306 22.1203 54.865 21.9368 54.7451 21.7902C54.6252 21.6436 54.4582 21.5431 54.2726 21.5055ZM8.48026 41.8416H2.71007V22.9913C6.63784 22.3228 10.6145 22.7664 14.5509 24.3118L8.48026 41.8416ZM40.617 46.7214C39.9713 47.3668 38.921 47.3668 38.2756 46.7214L33.1138 41.4435C33.0386 41.3664 32.9489 41.3049 32.8499 41.2624C32.7509 41.22 32.6445 41.1975 32.5368 41.1962C32.429 41.1949 32.3221 41.2148 32.2221 41.2548C32.1221 41.2948 32.031 41.3541 31.9539 41.4294C31.8768 41.5046 31.8153 41.5943 31.7728 41.6933C31.7304 41.7923 31.7079 41.8987 31.7066 42.0064C31.7053 42.1141 31.7252 42.2211 31.7652 42.3211C31.8052 42.4211 31.8645 42.5122 31.9398 42.5893L36.6465 47.4123L36.6495 47.4151L36.6535 47.4195C37.2989 48.0648 37.2989 49.1152 36.6535 49.7606C36.008 50.4061 34.9574 50.406 34.3123 49.7609L28.9313 44.2637C28.8561 44.1866 28.7664 44.1251 28.6674 44.0827C28.5684 44.0402 28.462 44.0177 28.3543 44.0164C28.2466 44.0151 28.1396 44.035 28.0396 44.075C27.9396 44.115 27.8485 44.1744 27.7714 44.2496C27.6943 44.3249 27.6328 44.4145 27.5903 44.5136C27.5479 44.6126 27.5254 44.719 27.5241 44.8267C27.5228 44.9344 27.5427 45.0413 27.5827 45.1413C27.6227 45.2413 27.682 45.3325 27.7573 45.4096L32.4641 50.2326L32.4676 50.2357L32.4711 50.2396V50.2397C32.782 50.5504 32.953 50.9661 32.953 51.4103C32.953 51.8545 32.782 52.2701 32.4713 52.5807C31.8256 53.2262 30.7753 53.226 30.1299 52.5809L24.2872 46.6222C24.212 46.5451 24.1223 46.4836 24.0233 46.4411C23.9243 46.3987 23.8179 46.3762 23.7102 46.3748C23.6025 46.3735 23.4956 46.3935 23.3956 46.4335C23.2955 46.4735 23.2044 46.5328 23.1273 46.6081C23.0502 46.6833 22.9887 46.773 22.9463 46.872C22.9038 46.971 22.8813 47.0774 22.88 47.1851C22.8787 47.2928 22.8986 47.3997 22.9386 47.4998C22.9786 47.5998 23.038 47.6909 23.1132 47.768L27.8199 52.5909L27.8234 52.5942L27.8269 52.598C28.2944 53.0657 28.2945 53.8266 27.8271 54.2943C27.5979 54.5234 27.2925 54.647 26.9632 54.6465C26.6462 54.6445 26.353 54.5219 26.1378 54.3015L17.6879 45.6431C17.59 45.5428 17.4835 45.4318 17.3685 45.3121C16.0913 43.9823 13.8009 41.5994 10.6995 40.448L15.2294 27.3674C16.9972 27.9557 18.63 28.2442 20.3757 28.2442C21.0924 28.2442 21.8296 28.1937 22.6014 28.0972L20.7031 29.8821C19.7951 30.736 19.3152 31.8462 19.3152 33.0927V41.3352C19.3152 41.7884 19.6823 42.1555 20.1355 42.1555C23.6708 42.1555 27.3276 39.9195 27.3276 36.1773C27.3276 34.8856 28.3458 33.9624 29.1263 33.3243L38.0658 42.2582C38.497 42.6893 38.9917 43.0164 39.5219 43.235L40.6046 44.3668C41.2532 45.0454 41.2588 46.0797 40.617 46.7214ZM44.4837 40.6423C43.7592 41.0062 43.01 41.3827 42.2261 41.7025C41.1606 42.1375 40.0391 41.9113 39.2251 41.098L29.7591 31.6378C29.611 31.4898 29.4119 31.404 29.2026 31.3981C28.9933 31.3921 28.7897 31.4664 28.6334 31.6057C28.5463 31.6832 28.4271 31.7795 28.2891 31.8908C27.3796 32.625 25.6866 33.9916 25.6866 36.1774C25.6866 37.7198 24.7799 38.7203 24.0193 39.2879C23.176 39.9174 22.0911 40.3301 20.9554 40.4659V33.0928C20.9554 32.2879 21.2403 31.6286 21.8266 31.0774L26.1693 26.9943C27.8377 25.4254 30.058 24.8852 32.2607 25.5124C32.8335 25.6754 33.4015 25.8553 33.9507 26.0292C35.9896 26.6745 38.0939 27.3388 40.7235 27.2306L45.2379 40.2664C44.9859 40.3905 44.7345 40.5159 44.4837 40.6423ZM53.2899 41.8416H47.5197L41.4491 24.3119C45.3853 22.7664 49.3618 22.3229 53.2899 22.9914V41.8416ZM8.91699 20.0945H20.0223V22.416C20.0223 22.8691 20.3894 23.2363 20.8426 23.2363H35.1573C35.6104 23.2363 35.9776 22.8691 35.9776 22.416V20.0945H47.0828C47.536 20.0945 47.9032 19.7273 47.9032 19.2742V15.8443C47.9049 14.4984 47.5128 13.1813 46.775 12.0556C46.0373 10.9298 44.9863 10.0446 43.7515 9.50897C44.5621 8.61067 45.0561 7.4269 45.0561 6.13059C45.0561 3.3307 42.7546 1.05286 39.9256 1.05286C37.0965 1.05286 34.7949 3.3307 34.7949 6.13059C34.7949 7.428 35.2897 8.61275 36.1016 9.51137C34.5263 10.2015 33.2628 11.4512 32.5556 13.0188C32.3199 12.8818 32.0762 12.7589 31.8259 12.6508C32.6365 11.7525 33.1305 10.5687 33.1305 9.2725C33.1305 6.4725 30.829 4.19465 28 4.19465C25.1709 4.19465 22.8693 6.4725 22.8693 9.2725C22.8693 10.5688 23.3633 11.7526 24.1739 12.6509C23.9224 12.76 23.6785 12.8823 23.4444 13.0189C22.7372 11.4512 21.4738 10.2015 19.8985 9.51148C20.7104 8.61297 21.2052 7.42822 21.2052 6.13081C21.2052 3.33092 18.9036 1.05308 16.0746 1.05308C13.2455 1.05308 10.9439 3.33092 10.9439 6.13081C10.9439 7.42712 11.438 8.611 12.2486 9.50918C11.0138 10.0448 9.96274 10.9301 9.22502 12.0558C8.4873 13.1815 8.09514 14.4986 8.0969 15.8445V19.2744C8.09688 19.3821 8.11809 19.4888 8.1593 19.5883C8.2005 19.6878 8.26091 19.7782 8.33707 19.8543C8.41322 19.9305 8.50363 19.9909 8.60314 20.0321C8.70264 20.0733 8.80929 20.0945 8.91699 20.0945ZM34.3369 21.5956H21.663V18.9861C21.663 16.5068 23.3764 14.386 25.7734 13.8464C26.4686 14.1789 27.2295 14.351 28.0001 14.35C28.7706 14.351 29.5315 14.1789 30.2266 13.8464C32.6237 14.386 34.3371 16.5068 34.3371 18.9861V21.5956H34.3369ZM39.9256 2.69337C41.8499 2.69337 43.4155 4.23523 43.4155 6.13048C43.4155 8.02573 41.8499 9.5677 39.9256 9.5677C38.0011 9.5677 36.4355 8.02573 36.4355 6.13048C36.4355 4.23523 38.0011 2.69337 39.9256 2.69337ZM37.6996 10.705C38.3945 11.0373 39.1552 11.2094 39.9256 11.2083C40.7229 11.2083 41.4784 11.0272 42.1522 10.7047C44.5493 11.2444 46.2626 13.3651 46.2626 15.8443V18.4539H35.956C35.83 16.7856 35.1013 15.2202 33.9059 14.0498C34.518 12.3701 35.9497 11.101 37.6996 10.705ZM28 5.83517C29.9243 5.83517 31.4899 7.37714 31.4899 9.27239C31.4899 11.1676 29.9243 12.7094 28 12.7094C26.0755 12.7094 24.5099 11.1675 24.5099 9.27228C24.5099 7.37703 26.0755 5.83517 28 5.83517ZM16.0745 2.69337C17.9988 2.69337 19.5644 4.23523 19.5644 6.13048C19.5644 8.02573 17.9988 9.5677 16.0745 9.5677C14.15 9.5677 12.5844 8.02573 12.5844 6.13048C12.5844 4.23523 14.15 2.69337 16.0745 2.69337ZM9.7373 15.8442C9.7373 13.365 11.4507 11.2443 13.8477 10.7045C14.5429 11.0371 15.3039 11.2092 16.0745 11.2082C16.8448 11.2092 17.6055 11.0372 18.3005 10.7049C20.0503 11.1009 21.4821 12.3699 22.0942 14.0497C20.8987 15.2201 20.17 16.7855 20.044 18.4538H9.7373V15.8442Z" fill="#CA579F"></path>
</svg>
