<?xml version="1.0" encoding="UTF-8"?>
<svg xmlns="http://www.w3.org/2000/svg" width="56" height="57" viewBox="0 0 56 57" fill="none">
  <path d="M4.86064 21.5238L27.9991 6.09758L51.1376 21.5238C51.3307 21.6526 51.567 21.6994 51.7946 21.654C52.0222 21.6085 52.2225 21.4745 52.3513 21.2815C52.4801 21.0884 52.5269 20.852 52.4814 20.6244C52.436 20.3968 52.302 20.1966 52.1089 20.0678L44.6233 15.0777V5.20245C44.6233 4.97039 44.5311 4.74783 44.367 4.58374C44.2029 4.41964 43.9803 4.32745 43.7483 4.32745H38.1483C37.9162 4.32745 37.6936 4.41964 37.5295 4.58374C37.3654 4.74783 37.2733 4.97039 37.2733 5.20245V10.176L28.4839 4.31783C28.3402 4.22156 28.1712 4.17017 27.9983 4.17017C27.8253 4.17017 27.6563 4.22156 27.5126 4.31783L3.88851 20.0678C3.69543 20.1966 3.56143 20.3968 3.51597 20.6244C3.47052 20.852 3.51734 21.0884 3.64614 21.2815C3.77493 21.4745 3.97515 21.6085 4.20275 21.654C4.43035 21.6994 4.66756 21.6526 4.86064 21.5238ZM39.0224 6.07746H42.8733V13.9096L39.0233 11.3423L39.0224 6.07746Z" fill="#CA579F"></path>
  <path d="M7.43751 22.3786V30.8487C7.43751 31.0807 7.5297 31.3033 7.69379 31.4674C7.85788 31.6315 8.08044 31.7237 8.31251 31.7237C8.54457 31.7237 8.76713 31.6315 8.93123 31.4674C9.09532 31.3033 9.18751 31.0807 9.18751 30.8487V22.3786C9.18751 22.1466 9.09532 21.924 8.93123 21.7599C8.76713 21.5958 8.54457 21.5036 8.31251 21.5036C8.08044 21.5036 7.85788 21.5958 7.69379 21.7599C7.5297 21.924 7.43751 22.1466 7.43751 22.3786ZM46.8108 22.3786V30.8487C46.8108 31.0807 46.9029 31.3033 47.067 31.4674C47.2311 31.6315 47.4537 31.7237 47.6858 31.7237C47.9178 31.7237 48.1404 31.6315 48.3045 31.4674C48.4686 31.3033 48.5608 31.0807 48.5608 30.8487V22.3786C48.5608 22.1466 48.4686 21.924 48.3045 21.7599C48.1404 21.5958 47.9178 21.5036 47.6858 21.5036C47.4537 21.5036 47.2311 21.5958 47.067 21.7599C46.9029 21.924 46.8108 22.1466 46.8108 22.3786ZM28 15.2369C23.828 11.6756 16.8901 14.9044 17.0625 20.4169C17.0625 26.4745 27.2099 31.0849 27.6413 31.2792C27.754 31.3289 27.8759 31.3545 27.9991 31.3544C28.5591 31.3247 38.8798 26.5629 38.9366 20.4178C39.1108 14.9026 32.1676 11.6774 27.9991 15.2378L28 15.2369ZM37.1866 20.4169C37.1866 24.3334 30.8656 28.1545 27.9991 29.516C25.1326 28.1545 18.8116 24.3334 18.8116 20.4178C18.8114 19.7675 18.9398 19.1236 19.1896 18.5233C19.4393 17.9229 19.8054 17.3778 20.2667 16.9196C20.7281 16.4613 21.2756 16.0989 21.8776 15.8532C22.4797 15.6075 23.1244 15.4834 23.7746 15.488C25.1534 15.5222 26.4681 16.0768 27.4549 17.0403C28.0586 17.5355 28.6641 16.965 29.1279 16.5765C32.1554 13.9778 37.3791 16.377 37.1866 20.4169ZM34.3989 44.7682L31.2139 43.7068C31.8987 43.2041 32.4556 42.5473 32.8398 41.7896C33.2239 41.0319 33.4243 40.1944 33.425 39.3449C33.1713 32.1673 22.8288 32.162 22.5733 39.3449C22.5741 40.1943 22.7746 41.0316 23.1587 41.7891C23.5428 42.5467 24.0997 43.2033 24.7844 43.7059L21.5994 44.7673C20.6634 45.078 19.8492 45.6759 19.2726 46.476C18.6959 47.276 18.3861 48.2375 18.3873 49.2237V51.2012C18.3873 51.723 18.5944 52.2235 18.9633 52.5927C19.3321 52.9618 19.8324 53.1694 20.3543 53.1699H35.6449C36.1664 53.1694 36.6665 52.9621 37.0353 52.5933C37.404 52.2245 37.6114 51.7244 37.6119 51.2029V49.2254C37.6129 48.2391 37.303 47.2776 36.7262 46.4775C36.1494 45.6775 35.335 45.0788 34.3989 44.7682ZM28 35.6699C28.9749 35.6699 29.9099 36.0572 30.5992 36.7465C31.2886 37.4359 31.6759 38.3709 31.6759 39.3458C31.6759 40.3207 31.2886 41.2557 30.5992 41.945C29.9099 42.6344 28.9749 43.0217 28 43.0217C27.0251 43.0217 26.0901 42.6344 25.4008 41.945C24.7114 41.2557 24.3241 40.3207 24.3241 39.3458C24.3241 38.3709 24.7114 37.4359 25.4008 36.7465C26.0901 36.0572 27.0251 35.6699 28 35.6699ZM35.8628 51.202C35.8628 51.2596 35.8399 51.3148 35.7992 51.3555C35.7585 51.3962 35.7033 51.419 35.6458 51.419H20.3543C20.2967 51.419 20.2415 51.3962 20.2008 51.3555C20.1601 51.3148 20.1373 51.2596 20.1373 51.202V49.2245C20.1367 48.6057 20.331 48.0023 20.6927 47.5002C21.0545 46.998 21.5652 46.6226 22.1524 46.4272C24.2743 45.8339 27.4811 44.1259 29.7071 45.0482L33.8459 46.4272C34.4332 46.6224 34.9441 46.9978 35.306 47.5C35.6679 48.0021 35.8624 48.6056 35.8619 49.2245L35.8628 51.202ZM49.021 43.2212L45.36 42.0049C50.0378 38.8138 47.754 31.2827 42.0123 31.2958C40.765 31.306 39.5532 31.7116 38.5512 32.4543C37.5492 33.197 36.8087 34.2385 36.4362 35.4289C36.0637 36.6192 36.0785 37.897 36.4785 39.0784C36.8785 40.2598 37.6429 41.2839 38.6619 42.0032L37.0431 42.5395C36.8228 42.6124 36.6404 42.7698 36.5361 42.9771C36.4319 43.1845 36.4142 43.4247 36.4871 43.6451C36.5599 43.8654 36.7174 44.0478 36.9247 44.1521C37.132 44.2564 37.3723 44.274 37.5926 44.2012L40.1056 43.369C42.7131 42.3567 45.9804 44.1968 48.4663 44.8828C49.1301 45.1033 49.7077 45.5272 50.1173 46.0943C50.5268 46.6613 50.7476 47.3429 50.7483 48.0424V50.2212C50.7487 50.2638 50.7407 50.3061 50.7246 50.3456C50.7085 50.3851 50.6846 50.421 50.6545 50.4511C50.6243 50.4813 50.5884 50.5051 50.549 50.5212C50.5095 50.5373 50.4672 50.5454 50.4245 50.5449H40.2308C39.9987 50.5449 39.7761 50.6371 39.612 50.8012C39.4479 50.9653 39.3558 51.1878 39.3558 51.4199C39.3558 51.652 39.4479 51.8745 39.612 52.0386C39.7761 52.2027 39.9987 52.2949 40.2308 52.2949H50.4245C50.9743 52.2942 51.5014 52.0755 51.8901 51.6868C52.2789 51.298 52.4976 50.7709 52.4983 50.2212V48.0424C52.4977 46.9758 52.1616 45.9364 51.5375 45.0714C50.9135 44.2064 50.0331 43.5597 49.021 43.2229V43.2212ZM42.0123 33.0449C47.4714 33.219 47.4688 41.1343 42.0123 41.3067C36.554 41.1334 36.554 33.2182 42.0123 33.0449ZM15.7675 50.5449H5.57376C5.4871 50.5426 5.40476 50.5066 5.34428 50.4445C5.28381 50.3824 5.24998 50.2991 5.25001 50.2124V48.0424C5.24831 47.3423 5.46803 46.6597 5.87774 46.092C6.28745 45.5244 6.86617 45.1008 7.53113 44.8819L12.0811 43.3594C13.3186 42.9514 14.6543 42.9514 15.8918 43.3594L18.403 44.1994C18.6231 44.2731 18.8635 44.2563 19.0712 44.1528C19.279 44.0492 19.4371 43.8674 19.5108 43.6473C19.5844 43.4272 19.5677 43.1868 19.4641 42.9791C19.3606 42.7713 19.1787 42.6132 18.9586 42.5395L17.3381 41.9979C18.1179 41.4576 18.7551 40.7365 19.1955 39.8963C19.6359 39.0561 19.8662 38.1218 19.8669 37.1732C19.5921 29.3926 8.38163 29.3874 8.10513 37.1732C8.10578 38.1218 8.33614 39.0561 8.77651 39.8963C9.21688 40.7365 9.85416 41.4576 10.6339 41.9979L6.97901 43.222C5.96519 43.5562 5.0829 44.2022 4.45811 45.0677C3.83332 45.9332 3.49799 46.9741 3.50001 48.0415V50.2115C3.49931 50.7626 3.71726 51.2915 4.10604 51.6821C4.49482 52.0727 5.02267 52.2931 5.57376 52.2949H15.7675C15.9996 52.2949 16.2221 52.2027 16.3862 52.0386C16.5503 51.8745 16.6425 51.652 16.6425 51.4199C16.6425 51.1878 16.5503 50.9653 16.3862 50.8012C16.2221 50.6371 15.9996 50.5449 15.7675 50.5449ZM13.986 33.0414C19.4486 33.2164 19.4434 41.1352 13.9816 41.3032C8.52513 41.1238 8.53213 33.2138 13.986 33.0414Z" fill="#CA579F"></path>
</svg>
