<?xml version="1.0" encoding="UTF-8"?>
<svg xmlns="http://www.w3.org/2000/svg" width="56" height="57" viewBox="0 0 56 57" fill="none">
  <path d="M29.4399 4.191H28.8176V3.56854C28.8176 3.35168 28.7314 3.1437 28.5781 2.99035C28.4248 2.837 28.2168 2.75085 27.9999 2.75085C27.783 2.75085 27.5751 2.837 27.4217 2.99035C27.2684 3.1437 27.1822 3.35168 27.1822 3.56854V4.191H26.5599C26.343 4.191 26.135 4.27714 25.9817 4.43049C25.8283 4.58384 25.7422 4.79182 25.7422 5.00868C25.7422 5.22555 25.8283 5.43353 25.9817 5.58688C26.135 5.74022 26.343 5.82637 26.5599 5.82637H27.1822V6.44871C27.1822 6.66558 27.2684 6.87356 27.4217 7.02691C27.5751 7.18025 27.783 7.2664 27.9999 7.2664C28.2168 7.2664 28.4248 7.18025 28.5781 7.02691C28.7314 6.87356 28.8176 6.66558 28.8176 6.44871V5.82637H29.4399C29.6568 5.82637 29.8648 5.74022 30.0181 5.58688C30.1715 5.43353 30.2576 5.22555 30.2576 5.00868C30.2576 4.79182 30.1715 4.58384 30.0181 4.43049C29.8648 4.27714 29.6568 4.191 29.4399 4.191Z" fill="#CA579F"></path>
  <path d="M51.9473 53.873L49.5575 39.8822C49.2983 38.3648 48.2217 37.1459 46.7479 36.7013L36.0203 33.4645C35.7937 33.3959 35.5556 33.3731 35.3201 33.3974C35.0845 33.4218 34.8562 33.4929 34.6484 33.6065C34.2671 33.267 33.9891 32.6865 33.9891 32.1489V29.4709L34.0721 29.3995C34.1134 29.364 34.1572 29.3256 34.2023 29.2857H35.253C36.7116 29.2857 38.0645 28.7001 39.0627 27.6367C40.0608 26.5734 40.5599 25.1862 40.4677 23.7306L40.1766 19.1302V19.0613C40.1766 18.9357 40.167 18.8124 40.1488 18.6918L39.8226 13.5396C39.7941 13.0889 39.4045 12.7468 38.9549 12.7751C38.8478 12.7818 38.743 12.8097 38.6466 12.8569C38.5501 12.9042 38.464 12.97 38.393 13.0506C38.322 13.1312 38.2676 13.225 38.2329 13.3266C38.1981 13.4282 38.1837 13.5357 38.1905 13.6428L38.3835 16.6912C38.1654 16.6293 37.9397 16.5978 37.713 16.5977H37.6674C37.4271 16.2331 37.0284 15.9814 36.5595 15.9392C28.0714 15.1753 25.6276 12.6404 23.843 10.7894C23.4721 10.4047 22.8638 10.3753 22.0351 10.702C20.5945 11.2697 18.1422 13.1046 18.0886 16.3809L18.0885 16.3944V16.6056C17.9285 16.6185 17.7702 16.6471 17.6158 16.691L17.868 12.7067C18.0022 10.5871 19.0693 8.69767 20.7715 7.49596L20.8334 7.65773C21.2438 8.73037 22.2913 9.45104 23.4399 9.45104H32.7729C33.9213 9.45104 34.9688 8.73037 35.3794 7.65773L35.3937 7.62032C36.2798 8.28721 36.9919 9.158 37.4696 10.1588C37.5363 10.2981 37.6409 10.4156 37.7716 10.4979C37.9022 10.5801 38.0534 10.6237 38.2078 10.6236C38.3298 10.6236 38.4502 10.5961 38.5602 10.5433C38.6571 10.4969 38.7439 10.4319 38.8156 10.352C38.8874 10.2722 38.9427 10.1789 38.9784 10.0776C39.0141 9.97636 39.0295 9.86904 39.0238 9.76181C39.018 9.65458 38.9911 9.54954 38.9448 9.45268C38.2794 8.06263 37.2678 6.89571 35.9974 6.0427L36.5605 4.57127C36.6663 4.29553 36.7106 4.00002 36.6904 3.70537C36.6701 3.41073 36.5858 3.12405 36.4434 2.86535C36.3013 2.60646 36.1045 2.38168 35.8667 2.2067C35.6288 2.03171 35.3557 1.91074 35.0662 1.85221L30.3732 0.899118C28.8774 0.593523 27.3352 0.593523 25.8395 0.899118L21.1465 1.85199C20.857 1.91049 20.5838 2.03147 20.3459 2.20648C20.1081 2.38149 19.9113 2.60631 19.7693 2.86524C19.6268 3.12394 19.5425 3.41063 19.5223 3.70527C19.5021 3.99992 19.5464 4.29543 19.6522 4.57117L20.1722 5.92971C17.8667 7.39643 16.4107 9.8414 16.2359 12.6032L15.8484 18.7243C15.8321 18.8358 15.8235 18.9483 15.8227 19.0609V19.1299L15.5315 23.7303C15.4393 25.1857 15.9384 26.573 16.9365 27.6364C17.9347 28.6997 19.2877 29.2853 20.7462 29.2853H21.797C21.842 29.3251 21.8859 29.3636 21.9271 29.3992L22.0101 29.4706V32.1485C22.0101 32.6861 21.7321 33.2668 21.3508 33.6062C21.1431 33.4925 20.9148 33.4214 20.6792 33.397C20.4437 33.3726 20.2057 33.3954 19.979 33.4641L9.25131 36.701C7.77759 37.1456 6.70101 38.3645 6.44169 39.8819L5.54405 45.1375C5.52597 45.2433 5.52891 45.3517 5.55272 45.4564C5.57653 45.5611 5.62072 45.6601 5.68279 45.7478C5.74486 45.8354 5.82358 45.9099 5.91445 45.9671C6.00533 46.0243 6.10659 46.0631 6.21244 46.0812C6.65716 46.1578 7.08011 45.858 7.15612 45.4128L8.05377 40.1572C8.20788 39.2554 8.84772 38.5309 9.72359 38.2667L20.4514 35.0297C20.4853 35.0195 20.5218 35.0215 20.5543 35.0354C20.5869 35.0494 20.6135 35.0743 20.6295 35.1059L20.6297 35.1064L25.7516 45.2255C25.8833 45.4865 26.0593 45.7227 26.2717 45.9236C26.7304 46.3569 27.3427 46.607 27.9994 46.607C28.4173 46.607 28.8172 46.5058 29.171 46.3204C29.6259 46.082 30.0046 45.7048 30.2473 45.2254L35.3694 35.1059C35.3853 35.0742 35.4119 35.0491 35.4445 35.0351C35.4771 35.0212 35.5137 35.0192 35.5476 35.0297L46.2753 38.2665C47.1513 38.5308 47.7911 39.2553 47.9451 40.1571L50.3349 54.1478C50.3866 54.4502 50.2519 54.6642 50.1669 54.7648C50.0819 54.8654 49.8938 55.0343 49.587 55.0343H44.5214L43.1849 47.2105C43.1669 47.1046 43.1282 47.0033 43.071 46.9124C43.0138 46.8215 42.9393 46.7427 42.8516 46.6807C42.764 46.6186 42.6649 46.5744 42.5602 46.5506C42.4555 46.5268 42.3471 46.5239 42.2412 46.5421C42.1354 46.5602 42.0341 46.5989 41.9432 46.6561C41.8524 46.7133 41.7736 46.7879 41.7116 46.8755C41.6495 46.9631 41.6053 47.0621 41.5815 47.1668C41.5577 47.2715 41.5548 47.3799 41.5728 47.4858L42.8623 55.0342H13.1369L14.4263 47.4858C14.4628 47.272 14.4129 47.0525 14.2875 46.8755C14.1622 46.6985 13.9717 46.5786 13.7579 46.5421C13.5441 46.5056 13.3246 46.5555 13.1476 46.6808C12.9706 46.8062 12.8507 46.9967 12.8142 47.2105L11.4778 55.0343H6.41205C6.10525 55.0343 5.91702 54.8654 5.83214 54.7648C5.74726 54.6642 5.61252 54.4501 5.66414 54.1478L6.49605 49.2774C6.51413 49.1716 6.51118 49.0632 6.48737 48.9585C6.46357 48.8538 6.41937 48.7548 6.3573 48.6672C6.29524 48.5795 6.21652 48.505 6.12564 48.4478C6.03476 48.3906 5.93351 48.3518 5.82766 48.3337C5.38272 48.2574 4.95998 48.557 4.88397 49.0021L4.05206 53.8725C3.99306 54.216 4.00993 54.5683 4.10149 54.9047C4.19305 55.241 4.35709 55.5532 4.58209 55.8195C4.80663 56.0861 5.08679 56.3004 5.40291 56.4473C5.71904 56.5941 6.06347 56.6701 6.41205 56.6698H49.5874C49.936 56.6701 50.2804 56.5941 50.5965 56.4472C50.9126 56.3003 51.1928 56.0861 51.4174 55.8195C51.6424 55.5534 51.8064 55.2412 51.8979 54.905C51.9895 54.5687 52.0063 54.2165 51.9473 53.873ZM21.2027 3.65318C21.2303 3.60237 21.2687 3.55826 21.3153 3.524C21.3618 3.48974 21.4154 3.46618 21.4721 3.45499L26.1651 2.50201C26.804 2.37189 27.4544 2.30619 28.1065 2.3059C28.755 2.3059 29.4038 2.37131 30.0478 2.50201L34.7408 3.45499L34.7409 3.4551C34.7976 3.46627 34.8512 3.48981 34.8977 3.52405C34.9443 3.55829 34.9827 3.60238 35.0102 3.65318C35.0434 3.71356 35.0905 3.83704 35.0332 3.98688L33.8521 7.07323C33.6821 7.51729 33.2484 7.81567 32.773 7.81567H23.44C22.9645 7.81567 22.5309 7.51729 22.3609 7.07323L21.1798 3.98688C21.1588 3.933 21.15 3.87515 21.1539 3.81747C21.1579 3.75978 21.1746 3.70369 21.2027 3.65318ZM38.8356 23.834C38.8988 24.834 38.5561 25.7869 37.8703 26.5174C37.3134 27.1106 36.5958 27.4874 35.8092 27.6081C36.7083 26.4951 37.591 25.0244 37.8402 23.3454C38.1699 23.3283 38.4927 23.2445 38.7891 23.0992L38.8356 23.834ZM18.1291 26.5174C17.4433 25.7869 17.1005 24.8339 17.1637 23.834L17.2102 23.0993C17.5066 23.2446 17.8294 23.3284 18.1591 23.3455C18.4082 25.0244 19.2911 26.4951 20.1901 27.6082C19.4035 27.4874 18.6859 27.1106 18.1291 26.5174ZM28.8909 44.2846L28.7883 44.4872C28.7735 44.5154 28.7573 44.5427 28.7398 44.5692C28.7343 44.5776 28.7299 44.587 28.7243 44.5952C28.7141 44.6102 28.7019 44.6231 28.6909 44.6373C28.6526 44.6874 28.609 44.7333 28.5609 44.774C28.5509 44.7823 28.5395 44.789 28.5291 44.7969C28.3765 44.9116 28.1905 44.9731 27.9996 44.972C27.6595 44.972 27.3646 44.7908 27.2109 44.4874L23.815 37.778H32.1844L28.8909 44.2846ZM33.0122 36.1425H22.9872L22.3555 34.8945C23.1261 34.25 23.6457 33.1977 23.6457 32.1488V30.7378C24.7162 31.4262 26.0557 31.9602 27.9906 31.9819H28.0088C29.9438 31.9602 31.2833 31.4262 32.3537 30.7379V32.1489C32.3537 33.1979 32.8733 34.2501 33.6439 34.8946L33.0122 36.1425ZM33.0051 28.1602C31.4929 29.4624 30.3271 30.3183 27.9997 30.3464C25.6724 30.3183 24.5066 29.4623 22.9944 28.1602C20.9869 26.4317 19.7652 24.3208 19.7264 22.5134C19.7218 22.2996 19.6337 22.0961 19.4809 21.9465C19.3281 21.797 19.1227 21.7132 18.9089 21.7132H18.2865C17.8298 21.7132 17.4584 21.3417 17.4584 20.8851V19.0613C17.4584 19.0231 17.4619 18.9859 17.4669 18.9491C17.4692 18.9366 17.471 18.924 17.4727 18.9114C17.5435 18.5262 17.8811 18.2332 18.2866 18.2332H18.9065C19.1234 18.2332 19.3313 18.147 19.4847 17.9937C19.638 17.8404 19.7242 17.6324 19.7242 17.4155V16.4015C19.7732 13.6338 22.1289 12.3404 22.875 12.1397C25.273 14.586 28.2202 16.8106 36.2876 17.5567C36.3209 17.7462 36.4199 17.9179 36.5672 18.0416C36.7145 18.1654 36.9008 18.2332 37.0932 18.2332H37.7131C38.1184 18.2332 38.4561 18.5262 38.527 18.9114C38.5287 18.9241 38.5305 18.9367 38.5328 18.9491C38.5378 18.9858 38.5413 19.0231 38.5413 19.0613V20.8851C38.5413 21.3416 38.1698 21.7132 37.7132 21.7132H37.0908C36.8769 21.7132 36.6716 21.7969 36.5188 21.9465C36.366 22.0961 36.2778 22.2996 36.2733 22.5134C36.2342 24.3207 35.0125 26.4316 33.0051 28.1602Z" fill="#CA579F"></path>
</svg>
