<?xml version="1.0" encoding="UTF-8"?>
<svg xmlns="http://www.w3.org/2000/svg" width="56" height="57" viewBox="0 0 56 57" fill="none">
  <path d="M48.125 26.9855V26.0449C48.125 23.4922 47.1109 21.0441 45.3059 19.239C43.5008 17.434 41.0527 16.4199 38.5 16.4199C35.9473 16.4199 33.4991 17.434 31.6941 19.239C29.889 21.0441 28.875 23.4922 28.875 26.0449V29.5449H25.375C25.1429 29.5449 24.9204 29.6371 24.7563 29.8012C24.5922 29.9653 24.5 30.1879 24.5 30.4199V33.9199C24.5 34.152 24.5922 34.3745 24.7563 34.5386C24.9204 34.7027 25.1429 34.7949 25.375 34.7949H25.4625L26.2911 42.6699H22.75V5.04492C22.75 4.34873 22.4734 3.68105 21.9811 3.18877C21.4889 2.69648 20.8212 2.41992 20.125 2.41992C19.4288 2.41992 18.7611 2.69648 18.2688 3.18877C17.7765 3.68105 17.5 4.34873 17.5 5.04492V42.6699H8.74998C8.28602 42.6705 7.84122 42.855 7.51315 43.1831C7.18508 43.5112 7.00053 43.956 6.99998 44.4199V46.9372L5.27612 53.8327C5.24387 53.9617 5.24145 54.0964 5.26904 54.2265C5.29662 54.3565 5.35349 54.4786 5.43532 54.5834C5.51715 54.6882 5.62179 54.773 5.74129 54.8313C5.86079 54.8896 5.99201 54.9199 6.12498 54.9199H47.25C47.482 54.9199 47.7046 54.8277 47.8687 54.6636C48.0328 54.4995 48.125 54.277 48.125 54.0449V50.5909L49.36 38.858C49.7831 38.626 50.1356 38.2839 50.3802 37.8681C50.6249 37.4522 50.7527 36.978 50.75 36.4955V30.2012C50.7491 29.445 50.4875 28.7123 50.0094 28.1265C49.5312 27.5408 48.8657 27.1378 48.125 26.9855ZM30.625 26.0449C30.625 25.0108 30.8287 23.9867 31.2244 23.0313C31.6202 22.0758 32.2003 21.2077 32.9315 20.4765C33.6628 19.7452 34.5309 19.1651 35.4863 18.7694C36.4418 18.3736 37.4658 18.1699 38.5 18.1699C39.5341 18.1699 40.5582 18.3736 41.5136 18.7694C42.4691 19.1651 43.3372 19.7452 44.0684 20.4765C44.7997 21.2077 45.3798 22.0758 45.7755 23.0313C46.1713 23.9867 46.375 25.0108 46.375 26.0449V26.9199H38.2812C37.5251 26.9208 36.7923 27.1824 36.2066 27.6605C35.6208 28.1387 35.2178 28.8042 35.0656 29.5449H30.625V26.0449ZM26.25 31.2949H35V33.0449H26.25V31.2949ZM27.2219 34.7949H35V36.4968C35.0015 36.8539 35.0735 37.2072 35.212 37.5364C35.3504 37.8657 35.5525 38.1643 35.8067 38.4151C36.0505 38.6586 36.3405 38.8508 36.6597 38.9804C36.9789 39.11 37.3208 39.1744 37.6652 39.1698C38.297 39.1586 38.9038 38.9208 39.375 38.4998C39.8558 38.9312 40.479 39.1698 41.125 39.1698C41.771 39.1698 42.3942 38.9312 42.875 38.4998C43.3556 38.931 43.9786 39.1696 44.6244 39.1698C45.2701 39.17 45.8932 38.9317 46.3741 38.5007C46.7135 38.8057 47.1273 39.016 47.5737 39.1103L46.4625 49.6699H33.9331L33.25 46.9372V44.4199C33.2494 43.956 33.0649 43.5112 32.7368 43.1831C32.4087 42.855 31.9639 42.6705 31.5 42.6699H28.0505L27.2219 34.7949ZM19.25 5.04492C19.25 4.81286 19.3422 4.5903 19.5063 4.4262C19.6704 4.26211 19.8929 4.16992 20.125 4.16992C20.357 4.16992 20.5796 4.26211 20.7437 4.4262C20.9078 4.5903 21 4.81286 21 5.04492V42.6699H19.25V5.04492ZM8.74998 44.4199H31.5V46.1699H8.74998V44.4199ZM10.7456 53.1699L12.0581 47.9199H13.7543L12.4418 53.1699H10.7456ZM8.55813 47.9199H10.2543L8.94182 53.1699H7.24563L8.55813 47.9199ZM15.5581 47.9199H17.3838L16.7276 53.1699H14.2456L15.5581 47.9199ZM18.4911 53.1699L19.1474 47.9199H21.1026L21.7588 53.1699H18.4911ZM23.5224 53.1699L22.8661 47.9199H24.6918L26.0043 53.1699H23.5224ZM27.8081 53.1699L26.4956 47.9199H28.1918L29.5043 53.1699H27.8081ZM31.3081 53.1699L29.9956 47.9199H31.6918L33.0043 53.1699H31.3081ZM46.375 53.1699H34.8081L34.3706 51.4199H46.375V53.1699ZM49 33.9199V36.4955C49.004 36.726 48.9205 36.9495 48.7662 37.1209C48.612 37.2923 48.3984 37.3987 48.1687 37.4188C48.0503 37.4248 47.9319 37.4065 47.8207 37.3653C47.7095 37.3241 47.6079 37.2607 47.5219 37.1789C47.436 37.0972 47.3676 36.9988 47.3208 36.8899C47.2741 36.7809 47.25 36.6635 47.25 36.5449V33.0449H45.5V36.5449C45.5 36.777 45.4078 36.9995 45.2437 37.1636C45.0796 37.3277 44.857 37.4199 44.625 37.4199C44.3929 37.4199 44.1704 37.3277 44.0063 37.1636C43.8422 36.9995 43.75 36.777 43.75 36.5449V33.0449H42V36.5449C42 36.777 41.9078 36.9995 41.7437 37.1636C41.5796 37.3277 41.357 37.4199 41.125 37.4199C40.8929 37.4199 40.6704 37.3277 40.5063 37.1636C40.3422 36.9995 40.25 36.777 40.25 36.5449V33.0449H38.5V36.5449C38.5002 36.7747 38.41 36.9953 38.2488 37.1591C38.0877 37.3228 37.8685 37.4165 37.6388 37.4199H37.6267C37.4039 37.4177 37.1911 37.3272 37.0348 37.1684C36.9455 37.0807 36.8744 36.9762 36.8256 36.861C36.7768 36.7458 36.7513 36.622 36.7504 36.4969V30.2012C36.7509 29.7952 36.9123 29.406 37.1994 29.1189C37.4865 28.8318 37.8757 28.6704 38.2817 28.6699H47.4692C47.8751 28.6704 48.2644 28.8318 48.5514 29.1189C48.8385 29.406 49 29.7952 49.0004 30.2012L49 33.9199Z" fill="#CA579F"></path>
  <path d="M42.8752 43.5449H44.6252V47.9199H42.8752V43.5449ZM42.8752 40.0449H44.6252V41.7949H42.8752V40.0449ZM10.5451 30.6966C10.6032 30.8708 10.7147 31.0223 10.8636 31.1297C11.0126 31.237 11.1916 31.2948 11.3752 31.2948C11.5588 31.2948 11.7378 31.237 11.8867 31.1297C12.0357 31.0223 12.1471 30.8708 12.2052 30.6966C12.4355 30.0113 12.8214 29.3886 13.3326 28.8774C13.8439 28.3662 14.4666 27.9803 15.1519 27.7501C15.3262 27.692 15.4778 27.5806 15.5852 27.4316C15.6926 27.2826 15.7504 27.1036 15.7504 26.9199C15.7504 26.7362 15.6926 26.5572 15.5852 26.4082C15.4778 26.2592 15.3262 26.1478 15.1519 26.0898C14.4666 25.8595 13.8439 25.4737 13.3326 24.9624C12.8214 24.4512 12.4355 23.8285 12.2052 23.1432C12.1471 22.969 12.0357 22.8175 11.8867 22.7102C11.7378 22.6028 11.5588 22.545 11.3752 22.545C11.1916 22.545 11.0126 22.6028 10.8636 22.7102C10.7147 22.8175 10.6032 22.969 10.5451 23.1432C10.3149 23.8285 9.929 24.4512 9.41776 24.9624C8.90652 25.4737 8.28382 25.8595 7.59847 26.0898C7.42421 26.1478 7.27263 26.2592 7.16522 26.4082C7.0578 26.5572 7 26.7362 7 26.9199C7 27.1036 7.0578 27.2826 7.16522 27.4316C7.27263 27.5806 7.42421 27.692 7.59847 27.7501C8.28382 27.9803 8.90652 28.3662 9.41776 28.8774C9.929 29.3886 10.3149 30.0113 10.5451 30.6966ZM11.3752 25.3413C11.806 25.9549 12.3401 26.4891 12.9537 26.9199C12.3401 27.3508 11.806 27.8849 11.3752 28.4985C10.9444 27.8849 10.4103 27.3508 9.79669 26.9199C10.4103 26.4891 10.9444 25.9549 11.3752 25.3413ZM53.6519 15.5898C52.9666 15.3595 52.3439 14.9737 51.8326 14.4624C51.3214 13.9512 50.9355 13.3285 50.7052 12.6432C50.6471 12.469 50.5357 12.3175 50.3867 12.2102C50.2378 12.1028 50.0588 12.045 49.8752 12.045C49.6916 12.045 49.5126 12.1028 49.3636 12.2102C49.2147 12.3175 49.1032 12.469 49.0451 12.6432C48.8149 13.3285 48.429 13.9512 47.9178 14.4624C47.4065 14.9737 46.7838 15.3595 46.0985 15.5898C45.9242 15.6478 45.7726 15.7592 45.6652 15.9082C45.5578 16.0572 45.5 16.2362 45.5 16.4199C45.5 16.6036 45.5578 16.7826 45.6652 16.9316C45.7726 17.0806 45.9242 17.192 46.0985 17.2501C46.7838 17.4803 47.4065 17.8662 47.9178 18.3774C48.429 18.8886 48.8149 19.5113 49.0451 20.1966C49.1032 20.3708 49.2147 20.5223 49.3636 20.6297C49.5126 20.737 49.6916 20.7948 49.8752 20.7948C50.0588 20.7948 50.2378 20.737 50.3867 20.6297C50.5357 20.5223 50.6471 20.3708 50.7052 20.1966C50.9355 19.5113 51.3214 18.8886 51.8326 18.3774C52.3439 17.8662 52.9666 17.4803 53.6519 17.2501C53.8262 17.192 53.9777 17.0806 54.0852 16.9316C54.1926 16.7826 54.2504 16.6036 54.2504 16.4199C54.2504 16.2362 54.1926 16.0572 54.0852 15.9082C53.9777 15.7592 53.8262 15.6478 53.6519 15.5898ZM49.8752 17.9985C49.4444 17.3849 48.9103 16.8508 48.2967 16.4199C48.9103 15.9891 49.4444 15.4549 49.8752 14.8413C50.306 15.4549 50.8401 15.9891 51.4537 16.4199C50.8401 16.8508 50.306 17.3849 49.8752 17.9985ZM6.12519 41.7949C6.30883 41.7949 6.48781 41.7371 6.63678 41.6297C6.78575 41.5224 6.89717 41.3708 6.95524 41.1966C7.18551 40.5113 7.57139 39.8886 8.08263 39.3774C8.59387 38.8662 9.21657 38.4803 9.90191 38.2501C10.0762 38.192 10.2278 38.0806 10.3352 37.9316C10.4426 37.7826 10.5004 37.6036 10.5004 37.4199C10.5004 37.2362 10.4426 37.0572 10.3352 36.9082C10.2278 36.7592 10.0762 36.6478 9.90191 36.5898C9.21657 36.3595 8.59387 35.9737 8.08263 35.4624C7.57139 34.9512 7.18551 34.3285 6.95524 33.6432C6.89714 33.469 6.78572 33.3175 6.63675 33.2102C6.48778 33.1028 6.30881 33.045 6.12519 33.045C5.94157 33.045 5.76261 33.1028 5.61364 33.2102C5.46467 33.3175 5.35324 33.469 5.29515 33.6432C5.06488 34.3285 4.679 34.9512 4.16776 35.4624C3.65652 35.9737 3.03382 36.3595 2.34848 36.5898C2.17421 36.6478 2.02263 36.7592 1.91522 36.9082C1.8078 37.0572 1.75 37.2362 1.75 37.4199C1.75 37.6036 1.8078 37.7826 1.91522 37.9316C2.02263 38.0806 2.17421 38.192 2.34848 38.2501C3.03382 38.4803 3.65652 38.8662 4.16776 39.3774C4.679 39.8886 5.06488 40.5113 5.29515 41.1966C5.35322 41.3708 5.46464 41.5224 5.61361 41.6297C5.76258 41.7371 5.94156 41.7949 6.12519 41.7949ZM6.12519 35.8413C6.55601 36.4549 7.09011 36.989 7.70369 37.4199C7.09011 37.8508 6.55601 38.3849 6.12519 38.9985C5.69438 38.3849 5.16028 37.8508 4.54669 37.4199C5.16028 36.989 5.69438 36.4549 6.12519 35.8413Z" fill="#CA579F"></path>
</svg>
