<?xml version="1.0" encoding="UTF-8"?>
<svg xmlns="http://www.w3.org/2000/svg" width="56" height="57" viewBox="0 0 56 57" fill="none">
  <path d="M12.7653 32.2633C10.9762 32.0004 9.17483 31.8294 7.36826 31.7511C6.57609 31.7021 5.53192 32.1151 5.35109 34.1125C5.31735 34.6147 5.36582 35.1191 5.49459 35.6058C5.61458 36.114 5.88511 36.5741 6.2708 36.9261C6.6565 37.2781 7.13942 37.5055 7.65642 37.5786L15.3786 38.666C15.4172 38.6723 15.4562 38.6754 15.4953 38.6753C15.6461 38.6754 15.7944 38.6366 15.9258 38.5625C16.0572 38.4884 16.1672 38.3816 16.2451 38.2525C16.3231 38.1233 16.3663 37.9762 16.3707 37.8255C16.375 37.6747 16.3403 37.5254 16.2699 37.392C13.7301 32.5608 13.0791 32.3601 12.7653 32.2633ZM7.90026 35.8461C7.73062 35.8202 7.57267 35.7439 7.44684 35.6273C7.32101 35.5106 7.23308 35.3588 7.19442 35.1916C7.11303 34.8919 7.07917 34.5813 7.09409 34.2711C7.09686 34.0055 7.15695 33.7437 7.27026 33.5035H7.29476C9.28976 33.6283 11.5333 33.8091 12.1411 33.9165C12.798 34.7954 13.3854 35.7242 13.8981 36.6943L7.90026 35.8461ZM48.6298 31.7511C46.8232 31.8294 45.0218 32.0004 43.2328 32.2633C42.9189 32.3601 42.2668 32.5608 39.7234 37.3966C39.653 37.53 39.6183 37.6794 39.6227 37.8301C39.627 37.9809 39.6702 38.128 39.7482 38.2571C39.8261 38.3863 39.9362 38.4931 40.0676 38.5671C40.1989 38.6412 40.3473 38.6801 40.4981 38.68C40.5372 38.6801 40.5762 38.677 40.6148 38.6706L48.3369 37.5833C48.8539 37.5102 49.3368 37.2827 49.7225 36.9308C50.1082 36.5788 50.3788 36.1186 50.4988 35.6105C50.6271 35.1237 50.6756 34.6194 50.6423 34.1171C50.4649 32.1151 49.4149 31.7033 48.6298 31.7511ZM48.8036 35.1916C48.7649 35.3588 48.677 35.5106 48.5512 35.6273C48.4253 35.7439 48.2674 35.8202 48.0978 35.8461L42.0999 36.6908C42.6129 35.7211 43.2 34.7924 43.8558 33.913C44.4741 33.8045 46.7199 33.6236 48.7138 33.5C48.841 33.7369 48.9064 34.0022 48.9039 34.2711C48.9189 34.5813 48.885 34.8919 48.8036 35.1916ZM40.1119 33.0776C40.0238 32.9517 39.9041 32.8512 39.7649 32.7861C39.6256 32.7209 39.4717 32.6936 39.3186 32.7066C39.2381 32.7136 31.2009 33.4066 28.0019 33.4066C24.8029 33.4066 16.7646 32.7066 16.6853 32.7066C16.532 32.6931 16.378 32.7203 16.2386 32.7854C16.0993 32.8505 15.9796 32.9512 15.8917 33.0774C15.8037 33.2036 15.7506 33.3507 15.7378 33.504C15.7249 33.6573 15.7527 33.8112 15.8184 33.9503L18.1226 38.8398C18.19 38.9819 18.2943 39.1033 18.4246 39.1913C18.5549 39.2794 18.7064 39.3308 18.8634 39.3403L27.9973 39.863L37.1451 39.3403C37.3021 39.3311 37.4538 39.2797 37.5841 39.1916C37.7145 39.1036 37.8187 38.982 37.8859 38.8398L40.1901 33.9503C40.2553 33.8109 40.2824 33.6567 40.2686 33.5034C40.2549 33.3501 40.2008 33.2032 40.1119 33.0776ZM36.5209 37.6276L27.9996 38.12L19.4829 37.6276L18.0468 34.5803C20.5656 34.7856 25.5589 35.1636 28.0031 35.1636C30.4473 35.1636 35.4418 34.7856 37.9618 34.5803L36.5209 37.6276ZM33.0291 6.4963L34.3194 6.9793C34.7413 7.13702 35.1245 7.38338 35.4431 7.70177C35.7617 8.02016 36.0083 8.40317 36.1663 8.82496L36.6493 10.12C36.7123 10.2855 36.8241 10.428 36.97 10.5285C37.1158 10.6291 37.2888 10.6829 37.4659 10.6829C37.6431 10.6829 37.816 10.6291 37.9619 10.5285C38.1077 10.428 38.2196 10.2855 38.2826 10.12L38.7656 8.82963C38.9238 8.40814 39.1703 8.02538 39.4887 7.70704C39.807 7.3887 40.1898 7.14216 40.6113 6.98397L41.9016 6.50097C42.0671 6.43795 42.2096 6.3261 42.3102 6.18025C42.4107 6.0344 42.4646 5.86144 42.4646 5.6843C42.4646 5.50716 42.4107 5.3342 42.3102 5.18835C42.2096 5.0425 42.0671 4.93065 41.9016 4.86763L40.6113 4.38463C40.1895 4.22665 39.8065 3.98004 39.4881 3.66145C39.1697 3.34286 38.9233 2.9597 38.7656 2.5378L38.2873 1.23813C38.2242 1.07258 38.1124 0.930088 37.9665 0.829548C37.8207 0.729009 37.6477 0.675171 37.4706 0.675171C37.2934 0.675171 37.1205 0.729009 36.9746 0.829548C36.8288 0.930088 36.7169 1.07258 36.6539 1.23813L36.1663 2.52847C36.0085 2.95036 35.7622 3.33353 35.4438 3.65212C35.1254 3.97071 34.7424 4.21731 34.3206 4.3753L33.0303 4.8583C32.8647 4.92132 32.7222 5.03317 32.6217 5.17901C32.5211 5.32486 32.4673 5.49782 32.4673 5.67497C32.4673 5.85211 32.5211 6.02507 32.6217 6.17092C32.7222 6.31676 32.8647 6.42861 33.0303 6.49163L33.0291 6.4963ZM37.4683 3.85847C37.9011 4.61602 38.5286 5.24401 39.2859 5.6773C38.5284 6.11027 37.9007 6.73833 37.4683 7.49613C37.0348 6.7387 36.4069 6.11079 35.6494 5.6773C36.4069 5.24381 37.0348 4.6159 37.4683 3.85847ZM42.8664 11.9271L43.8441 12.2935C44.1354 12.4028 44.4 12.5733 44.62 12.7935C44.8399 13.0136 45.0102 13.2783 45.1193 13.5698L45.4856 14.5475C45.548 14.7144 45.66 14.8584 45.8064 14.96C45.9529 15.0616 46.1269 15.116 46.3052 15.116C46.4834 15.116 46.6574 15.0616 46.8039 14.96C46.9504 14.8584 47.0623 14.7144 47.1248 14.5475L47.4899 13.5698C47.5992 13.2783 47.7697 13.0135 47.9898 12.7934C48.21 12.5732 48.4747 12.4028 48.7663 12.2935L49.7439 11.9271C49.909 11.8636 50.0509 11.7516 50.1511 11.6058C50.2512 11.46 50.3048 11.2873 50.3048 11.1105C50.3048 10.9336 50.2512 10.7609 50.1511 10.6151C50.0509 10.4693 49.909 10.3573 49.7439 10.2938L48.7663 9.9228C48.4749 9.81428 48.2104 9.64434 47.9905 9.42451C47.7707 9.20469 47.6008 8.94013 47.4923 8.6488L47.1248 7.66996C47.0623 7.50299 46.9504 7.35907 46.8039 7.25746C46.6574 7.15586 46.4834 7.10141 46.3052 7.10141C46.1269 7.10141 45.9529 7.15586 45.8064 7.25746C45.66 7.35907 45.548 7.50299 45.4856 7.66996L45.1193 8.6488C45.0102 8.94011 44.8399 9.20466 44.6199 9.42463C44.4 9.64459 44.1354 9.81486 43.8441 9.92396L42.8653 10.2903C42.6997 10.3533 42.5572 10.4652 42.4567 10.611C42.3561 10.7569 42.3023 10.9298 42.3023 11.107C42.3023 11.2841 42.3561 11.4571 42.4567 11.6029C42.5572 11.7488 42.6997 11.8606 42.8653 11.9236L42.8664 11.9271ZM46.3046 10.12C46.5709 10.5041 46.904 10.8372 47.2881 11.1035C46.9048 11.3703 46.5718 11.7028 46.3046 12.0858C46.0381 11.7026 45.7054 11.37 45.3223 11.1035C45.706 10.8372 46.0387 10.504 46.3046 10.12ZM48.3323 6.4963L49.3099 6.86263C49.6011 6.97161 49.8656 7.1417 50.0856 7.36145C50.3055 7.58121 50.4758 7.84553 50.5851 8.13663L50.9514 9.1143C51.0139 9.28127 51.1258 9.42519 51.2723 9.5268C51.4187 9.62841 51.5927 9.68285 51.771 9.68285C51.9493 9.68285 52.1233 9.62841 52.2697 9.5268C52.4162 9.42519 52.5282 9.28127 52.5906 9.1143L52.9569 8.13663C53.0658 7.84536 53.2358 7.58081 53.4556 7.36084C53.6754 7.14086 53.9398 6.97058 54.2309 6.86147L55.2098 6.49513C55.3753 6.43211 55.5178 6.32026 55.6183 6.17442C55.7189 6.02857 55.7727 5.85561 55.7727 5.67847C55.7727 5.50132 55.7189 5.32836 55.6183 5.18251C55.5178 5.03667 55.3753 4.92482 55.2098 4.8618L54.2321 4.4943C53.941 4.38538 53.6766 4.2153 53.4569 3.99552C53.2371 3.77575 53.067 3.5114 52.9581 3.2203L52.5918 2.24147C52.5293 2.07449 52.4174 1.93057 52.2709 1.82897C52.1244 1.72736 51.9504 1.67291 51.7722 1.67291C51.5939 1.67291 51.4199 1.72736 51.2734 1.82897C51.127 1.93057 51.015 2.07449 50.9526 2.24147L50.5863 3.2203C50.4771 3.51148 50.3069 3.77587 50.0869 3.99564C49.8669 4.21541 49.6024 4.38546 49.3111 4.4943L48.3323 4.8618C48.1667 4.92482 48.0242 5.03667 47.9237 5.18251C47.8231 5.32836 47.7693 5.50132 47.7693 5.67847C47.7693 5.85561 47.8231 6.02857 47.9237 6.17442C48.0242 6.32026 48.1667 6.43328 48.3323 6.4963ZM51.7704 4.69497C52.0375 5.07765 52.3701 5.41019 52.7528 5.6773C52.3701 5.94441 52.0375 6.27695 51.7704 6.65963C51.5039 6.27646 51.1713 5.94382 50.7881 5.6773C51.171 5.41047 51.5036 5.07788 51.7704 4.69497ZM53.4458 50.1028C53.2137 50.1028 52.9911 50.195 52.827 50.3591C52.6629 50.5232 52.5708 50.7457 52.5708 50.9778V54.6108C52.5708 54.6928 52.5382 54.7714 52.4802 54.8294C52.4222 54.8874 52.3436 54.9199 52.2616 54.9199H47.7163C47.6343 54.9199 47.5556 54.8874 47.4976 54.8294C47.4397 54.7714 47.4071 54.6928 47.4071 54.6108V53.1128C47.4071 52.8807 47.3149 52.6582 47.1508 52.4941C46.9867 52.33 46.7642 52.2378 46.5321 52.2378C46.3 52.2378 46.0775 52.33 45.9134 52.4941C45.7493 52.6582 45.6571 52.8807 45.6571 53.1128V54.6108C45.6577 55.1567 45.8749 55.6801 46.2609 56.0662C46.6469 56.4522 47.1703 56.6693 47.7163 56.6699H52.2663C52.8122 56.6693 53.3356 56.4522 53.7216 56.0662C54.1077 55.6801 54.3248 55.1567 54.3254 54.6108V50.9778C54.3254 50.8625 54.3026 50.7483 54.2584 50.6419C54.2141 50.5354 54.1492 50.4387 54.0675 50.3574C53.9857 50.2761 53.8887 50.2117 53.782 50.168C53.6753 50.1243 53.5611 50.1022 53.4458 50.1028ZM9.40526 52.2366C9.17319 52.2366 8.95063 52.3288 8.78654 52.4929C8.62245 52.657 8.53026 52.8796 8.53026 53.1116V54.6096C8.53026 54.6914 8.49785 54.7699 8.44012 54.8278C8.38239 54.8858 8.30405 54.9185 8.22226 54.9188H3.67226C3.59046 54.9185 3.51213 54.8858 3.4544 54.8278C3.39667 54.7699 3.36426 54.6914 3.36426 54.6096V50.9778C3.36426 50.7457 3.27207 50.5232 3.10798 50.3591C2.94388 50.195 2.72132 50.1028 2.48926 50.1028C2.25719 50.1028 2.03463 50.195 1.87054 50.3591C1.70645 50.5232 1.61426 50.7457 1.61426 50.9778V54.6108C1.61457 55.1562 1.83113 55.6793 2.21648 56.0653C2.60182 56.4513 3.1245 56.6687 3.66992 56.6699H8.21992C8.76575 56.6693 9.28903 56.4521 9.67488 56.0661C10.0607 55.68 10.2776 55.1566 10.2779 54.6108V53.1128C10.2782 52.8809 10.1865 52.6584 10.0229 52.4941C9.85926 52.3299 9.63712 52.2372 9.40526 52.2366Z" fill="#CA579F"></path>
  <path d="M54.1674 22.6674L51.2507 22.1634C50.8246 22.0847 50.3844 22.1536 50.0026 22.3587C49.6209 22.5638 49.3204 22.8928 49.1507 23.2915L48.9932 23.6415L46.9259 18.7649C46.4586 17.6467 45.7127 16.6668 44.7594 15.9185C43.8061 15.1702 42.6771 14.6785 41.4799 14.4902C37.019 13.813 32.5122 13.483 28.0002 13.5032C23.4882 13.4834 18.9815 13.8138 14.5206 14.4914C13.3235 14.6796 12.1946 15.1711 11.2413 15.9192C10.288 16.6672 9.54207 17.6469 9.07458 18.7649L7.00024 23.6462L6.85324 23.3032C6.68487 22.9028 6.38516 22.5716 6.00346 22.3642C5.62177 22.1568 5.18083 22.0856 4.75324 22.1622L1.83658 22.6674C1.36325 22.7459 0.933162 22.9898 0.622929 23.3558C0.312697 23.7218 0.142471 24.1861 0.142578 24.6659V25.2387C0.143015 25.7006 0.300571 26.1485 0.589348 26.509C0.878125 26.8694 1.28094 27.1209 1.73158 27.222L4.50124 27.8474L3.27391 29.7199C2.21045 31.3378 1.64462 33.232 1.64641 35.1682V45.1199C1.64641 48.8754 4.26208 51.3032 8.31274 51.3032H47.6877C51.7384 51.3032 54.3541 48.8765 54.3541 45.1199V35.1635C54.3559 33.2274 53.79 31.3332 52.7266 29.7152L51.4992 27.8485L54.2596 27.2255C54.7115 27.1256 55.116 26.8747 55.4063 26.5142C55.6966 26.1537 55.8555 25.7051 55.8567 25.2422V24.6694C55.8581 24.1896 55.689 23.7249 55.3796 23.3583C55.0702 22.9916 54.6406 22.7467 54.1674 22.6674ZM2.10841 25.5094C2.047 25.4956 1.99214 25.4612 1.95289 25.412C1.91365 25.3628 1.89237 25.3016 1.89258 25.2387V24.6659C1.89163 24.5998 1.9148 24.5356 1.95774 24.4853C2.00069 24.4351 2.06048 24.4022 2.12591 24.3929L5.05541 23.8865C5.0965 23.8791 5.13888 23.8869 5.17471 23.9083C5.21053 23.9298 5.23736 23.9635 5.25024 24.0032L5.96541 25.6202L5.52908 26.2852L2.10841 25.5094ZM52.6041 42.4015H5.61424C5.38218 42.4015 5.15962 42.4937 4.99553 42.6578C4.83143 42.8219 4.73924 43.0445 4.73924 43.2765C4.73924 43.5086 4.83143 43.7312 4.99553 43.8953C5.15962 44.0594 5.38218 44.1515 5.61424 44.1515H52.6041V45.1199C52.6041 47.8942 50.7666 49.5532 47.6877 49.5532H8.31274C5.23391 49.5532 3.39641 47.8954 3.39641 45.1199V35.1635C3.39519 33.5683 3.8612 32.0076 4.73691 30.6742L7.49491 26.4672H45.6694C45.9015 26.4672 46.124 26.375 46.2881 26.2109C46.4522 26.0468 46.5444 25.8243 46.5444 25.5922C46.5444 25.3601 46.4522 25.1376 46.2881 24.9735C46.124 24.8094 45.9015 24.7172 45.6694 24.7172H8.45041L10.6857 19.4532C11.0376 18.6086 11.6 17.8683 12.3193 17.303C13.0387 16.7376 13.8909 16.3661 14.7947 16.2239C19.1647 15.5582 23.5799 15.2337 28.0002 15.2532C32.4205 15.2325 36.8357 15.5559 41.2057 16.2204C42.1099 16.3629 42.9624 16.735 43.6818 17.301C44.4012 17.867 44.9634 18.608 45.3147 19.4532L47.8721 25.4814C47.8919 25.5296 47.9165 25.5757 47.9456 25.619L51.2636 30.6789C52.1393 32.0123 52.6053 33.573 52.6041 35.1682V42.4015ZM54.1067 25.2387C54.1067 25.3029 54.0845 25.3651 54.0439 25.4149C54.0033 25.4646 53.9468 25.4988 53.8839 25.5117L50.4749 26.2817L50.0386 25.6167L50.7584 23.9834C50.7746 23.948 50.802 23.919 50.8364 23.9008C50.8708 23.8827 50.9102 23.8764 50.9486 23.883L53.8722 24.3894C53.9377 24.3987 53.9975 24.4316 54.0404 24.4819C54.0834 24.5321 54.1065 24.5963 54.1056 24.6624L54.1067 25.2387Z" fill="#CA579F"></path>
</svg>
