<?xml version="1.0" encoding="UTF-8"?>
<svg xmlns="http://www.w3.org/2000/svg" width="56" height="57" viewBox="0 0 56 57" fill="none">
  <path d="M4.4102 35.1848C4.7002 35.3858 5.00606 35.5639 5.32515 35.7137C5.70594 35.9085 6.345 36.2346 6.38995 36.4629C6.44549 36.7644 6.40935 37.0756 6.28594 37.3559C6.1546 37.6379 6.0171 37.8803 5.8981 38.0892C5.57549 38.6595 5.03515 39.615 5.84962 40.2805C6.04001 40.4568 6.3688 40.7116 6.66849 40.9416C6.44813 41.3277 6.34764 41.7702 6.38202 42.2136C6.42874 42.5626 6.61825 42.8764 6.90473 43.0809C7.10041 43.2184 7.30932 43.3383 7.5147 43.4556C8.03652 43.7517 8.24014 43.8901 8.30801 44.1669C8.35737 44.5212 8.32652 44.8826 8.21986 45.2246C8.16533 45.4576 8.12121 45.6929 8.08764 45.9298C7.9995 46.7328 8.0991 47.5455 8.37764 48.3045C8.57075 48.9866 8.97825 49.5884 9.53988 50.021C10.1015 50.4535 10.7874 50.6939 11.4962 50.7064C11.7395 50.7064 11.981 50.68 12.219 50.6297C14.7372 50.0328 17.2185 49.2903 19.6506 48.4058C21.6365 49.5711 22.8909 53.1146 23.2179 54.4447C23.2653 54.6358 23.3754 54.8055 23.5305 54.9267C23.6856 55.048 23.8769 55.1138 24.0738 55.1137L46.1984 55.052C46.3367 55.0518 46.4729 55.019 46.5961 54.9563C46.7194 54.8937 46.8262 54.8029 46.9079 54.6914C46.9895 54.5798 47.0438 54.4506 47.0664 54.3142C47.0889 54.1778 47.079 54.038 47.0376 53.9061C46.8196 53.3089 46.5191 52.7452 46.1446 52.2314C45.9333 51.9267 45.7427 51.608 45.5743 51.2776C45.1751 50.4698 44.8423 49.6308 44.5792 48.769C44.0758 47.0662 43.7268 45.3215 43.5364 43.556C43.3063 41.5144 43.5014 39.4472 44.1093 37.4846H46.3042C47.0055 37.4846 47.6781 37.2059 48.174 36.71C48.6699 36.2141 48.9486 35.5415 48.9486 34.8402V23.3812C48.9486 23.1474 48.8557 22.9232 48.6904 22.7579C48.5251 22.5926 48.3009 22.4998 48.0671 22.4998H44.5095C44.5728 22.0619 44.5412 21.6155 44.4168 21.1909C44.2924 20.7663 44.0781 20.3734 43.7885 20.039C43.4989 19.7045 43.1407 19.4362 42.7383 19.2523C42.3359 19.0685 41.8986 18.9733 41.4562 18.9733C41.0137 18.9733 40.5765 19.0685 40.174 19.2523C39.7716 19.4362 39.4134 19.7045 39.1238 20.039C38.8342 20.3734 38.6199 20.7663 38.4955 21.1909C38.3711 21.6155 38.3395 22.0619 38.4028 22.4998H35.7267V19.8245C36.2137 19.8939 36.7103 19.8471 37.1758 19.6879C37.6707 19.5194 38.1141 19.2269 38.4639 18.8384C38.8137 18.4498 39.0582 17.9782 39.1741 17.4684C39.2877 16.9794 39.2803 16.4701 39.1524 15.9847C39.0246 15.4992 38.7803 15.0523 38.4406 14.6826C38.101 14.313 37.6762 14.0319 37.2033 13.8636C36.7303 13.6953 36.2235 13.6449 35.7267 13.7169V10.1593C35.7267 9.92555 35.6338 9.70135 35.4685 9.53604C35.3032 9.37074 35.079 9.27787 34.8452 9.27787H23.3862C22.6849 9.27787 22.0123 9.55647 21.5164 10.0524C21.0205 10.5483 20.7419 11.2209 20.7419 11.9222V34.8402C20.7419 35.5415 21.0205 36.2141 21.5164 36.71C22.0123 37.2059 22.6849 37.4846 23.3862 37.4846H42.2583C41.7035 39.5306 41.5441 41.6636 41.7885 43.7694C41.9912 45.6407 42.3632 47.4909 42.8973 49.2961C43.1874 50.2436 43.5532 51.1662 43.9912 52.0551C44.1922 52.4544 44.4205 52.8396 44.6744 53.2071L44.7334 53.2953L24.7402 53.3508C24.155 51.2598 23.093 49.333 21.6374 47.7218L22.4307 47.4442C23.0213 47.2379 23.4665 47.0828 23.6948 47.0096C27.4709 45.8152 29.359 44.0955 29.3079 41.8971C29.3024 41.6634 29.2043 41.4413 29.0351 41.2799C28.8659 41.1185 28.6395 41.0309 28.4057 41.0364C28.1719 41.0419 27.9499 41.14 27.7885 41.3092C27.6271 41.4784 27.5395 41.7048 27.545 41.9386C27.5661 42.8456 26.8231 44.1687 23.1588 45.3278C22.7208 45.4738 22.2842 45.624 21.849 45.7782C21.1941 46.0074 20.3611 46.2983 19.4426 46.6103H19.4364C16.9558 47.5196 14.4248 48.2848 11.8559 48.9021C11.4611 48.9771 11.0526 48.8967 10.7156 48.6778C10.3786 48.4589 10.1391 48.1183 10.0471 47.7271C9.85882 47.2256 9.78795 46.6877 9.83998 46.1546C9.8629 45.9695 9.90521 45.7861 9.94576 45.6019C10.1254 44.9925 10.1517 44.3482 10.0224 43.7262C9.89574 43.326 9.68436 42.9578 9.40268 42.6466C9.12099 42.3354 8.7756 42.0885 8.38998 41.9227L8.20752 41.8187C8.30272 41.6265 8.41643 41.4441 8.54688 41.2739C8.62007 41.1812 8.67387 41.0747 8.70509 40.9608C8.7363 40.8468 8.7443 40.7278 8.72859 40.6107C8.71289 40.4936 8.6738 40.3809 8.61367 40.2792C8.55353 40.1775 8.47357 40.0889 8.37853 40.0187C8.16698 39.8636 7.66807 39.4899 7.30315 39.1955C7.34546 39.1188 7.39129 39.0342 7.43536 38.9575C7.57375 38.7151 7.73153 38.433 7.88579 38.1069C8.16433 37.489 8.24719 36.8005 8.12114 36.1342C7.90959 35.0588 6.87916 34.5317 6.12816 34.1474C5.87457 34.0268 5.63134 33.8856 5.40096 33.7251C5.21353 33.5985 5.03772 33.4554 4.87561 33.2976C4.87561 33.1636 5.01928 32.8393 5.69096 32.0222C7.26971 29.9897 8.62332 27.792 9.72804 25.4676C9.9343 25.1036 10.0507 24.6955 10.0674 24.2768C10.0224 23.8388 9.88419 23.4156 9.66207 23.0355C9.43994 22.6554 9.13905 22.3273 8.77959 22.0731C8.42701 21.7461 8.08764 21.4376 8.04798 21.1502C8.05383 20.9422 8.10055 20.7373 8.18549 20.5473C8.32916 20.1692 8.49488 19.799 8.66147 19.4279C9.02287 18.6822 9.31199 17.9038 9.52354 17.1035L9.61169 16.728C9.79775 15.8467 10.0377 14.9778 10.3301 14.1259C11.0249 12.2081 12.1007 10.4507 13.4927 8.95966C15.179 7.17559 17.8331 5.91334 21.3941 5.20553C24.1172 4.60762 26.8803 4.20961 29.6614 4.01468C33.6773 3.8137 37.6535 4.89614 41.0154 7.10243V7.95568C41.0154 8.11938 41.061 8.27984 41.1471 8.41909C41.2331 8.55834 41.3563 8.67087 41.5027 8.74408C41.6491 8.81729 41.813 8.84828 41.976 8.83358C42.1391 8.81888 42.2948 8.75907 42.4258 8.66085C42.7036 8.4648 43.0449 8.38004 43.3822 8.42328C43.7195 8.46653 44.0283 8.63464 44.2477 8.89443C44.5034 9.2144 44.5977 9.63486 44.5025 10.0342C44.3993 10.4678 44.0811 10.8187 43.6598 10.9659C43.4536 11.0385 43.2326 11.0592 43.0164 11.0262C42.8003 10.9931 42.5956 10.9073 42.4205 10.7763C42.2895 10.6796 42.1343 10.6211 41.9721 10.6072C41.8099 10.5933 41.647 10.6246 41.5015 10.6976C41.356 10.7707 41.2335 10.8826 41.1477 11.0209C41.062 11.1593 41.0162 11.3187 41.0154 11.4815V15.4481C41.0154 15.9156 41.2012 16.364 41.5318 16.6947C41.8624 17.0253 42.3108 17.211 42.7783 17.211H46.7449C46.9086 17.211 47.0691 17.1654 47.2083 17.0794C47.3476 16.9933 47.4601 16.8702 47.5333 16.7237C47.6065 16.5773 47.6375 16.4134 47.6228 16.2504C47.6081 16.0873 47.5483 15.9316 47.4501 15.8007C47.3027 15.6042 47.213 15.3706 47.191 15.1261C47.1689 14.8815 47.2154 14.6357 47.3252 14.416C47.435 14.1964 47.6038 14.0117 47.8127 13.8826C48.0216 13.7535 48.2623 13.6852 48.5078 13.6852C48.7534 13.6852 48.9941 13.7535 49.2029 13.8826C49.4118 14.0117 49.5806 14.1964 49.6904 14.416C49.8002 14.6357 49.8467 14.8815 49.8247 15.1261C49.8026 15.3706 49.7129 15.6042 49.5656 15.8007C49.4674 15.9316 49.4075 16.0873 49.3928 16.2504C49.3781 16.4134 49.4091 16.5773 49.4823 16.7237C49.5555 16.8702 49.6681 16.9933 49.8073 17.0794C49.9466 17.1654 50.107 17.211 50.2707 17.211H55.1188C55.3525 17.211 55.5767 17.1181 55.7421 16.9528C55.9074 16.7875 56.0002 16.5633 56.0002 16.3295V4.87057C56.0002 4.16924 55.7216 3.49663 55.2257 3.00072C54.7298 2.5048 54.0572 2.2262 53.3559 2.2262H41.8969C41.6631 2.2262 41.4389 2.31906 41.2736 2.48437C41.1083 2.64968 41.0154 2.87388 41.0154 3.10766V4.99133C37.5424 3.00066 33.5703 2.05032 29.5723 2.25352C26.7041 2.45273 23.8543 2.86173 21.046 3.47699C17.0715 4.2703 14.1829 5.66389 12.2111 7.74765C10.6557 9.412 9.45306 11.3738 8.67558 13.515C8.35814 14.4364 8.09733 15.3763 7.8946 16.3295L7.80646 16.7015C7.61871 17.3926 7.36573 18.0651 7.05281 18.7095C6.87652 19.1114 6.69318 19.5134 6.53539 19.9294C6.33252 20.3925 6.25238 20.9001 6.30269 21.4032C6.47986 22.193 6.93558 22.8929 7.58698 23.3742C8.01801 23.7691 8.30096 24.0476 8.30448 24.29C8.27294 24.424 8.22249 24.5528 8.15463 24.6725C7.09907 26.8949 5.80608 28.9965 4.29825 30.9406C3.65919 31.7181 2.98929 32.6251 3.13032 33.533C3.31719 34.2337 3.77907 34.8287 4.4102 35.1848ZM22.5048 11.9222C22.5048 11.6885 22.5977 11.4643 22.763 11.299C22.9283 11.1337 23.1525 11.0408 23.3862 11.0408H33.9638V15.0074C33.9638 15.171 34.0093 15.3315 34.0954 15.4708C34.1815 15.61 34.3046 15.7225 34.451 15.7958C34.5974 15.869 34.7613 15.8999 34.9244 15.8852C35.0874 15.8705 35.2431 15.8107 35.3741 15.7125C35.652 15.5165 35.9932 15.4317 36.3305 15.475C36.6678 15.5182 36.9766 15.6863 37.1961 15.9461C37.4517 16.2661 37.546 16.6865 37.4508 17.0858C37.3477 17.5195 37.0295 17.8703 36.6081 18.0175C36.4012 18.0902 36.1796 18.1105 35.9629 18.0768C35.7462 18.0432 35.5413 17.9565 35.3662 17.8245C35.2349 17.7284 35.0797 17.6704 34.9176 17.6571C34.7555 17.6437 34.5928 17.6755 34.4477 17.7488C34.3025 17.8222 34.1804 17.9343 34.095 18.0727C34.0096 18.2112 33.9642 18.3705 33.9638 18.5332V22.4998H31.2894C31.3577 22.0132 31.3106 21.5174 31.1519 21.0524C30.9837 20.5572 30.6915 20.1133 30.3032 19.763C29.9148 19.4127 29.4432 19.1678 28.9333 19.0515C28.4442 18.9377 27.9347 18.9449 27.449 19.0727C26.9633 19.2005 26.5162 19.4449 26.1465 19.7847C25.7767 20.1245 25.4955 20.5494 25.3272 21.0226C25.1589 21.4957 25.1087 22.0028 25.1809 22.4998H22.5048V11.9222ZM22.5048 34.8402V24.2627H26.4714C26.635 24.2627 26.7955 24.2171 26.9348 24.131C27.074 24.045 27.1865 23.9218 27.2598 23.7754C27.333 23.629 27.364 23.4651 27.3493 23.3021C27.3345 23.139 27.2747 22.9833 27.1765 22.8523C27.013 22.6341 26.921 22.3707 26.913 22.0981C26.905 21.8256 26.9815 21.5572 27.132 21.3298C27.2824 21.1024 27.4995 20.9271 27.7535 20.8279C28.0075 20.7287 28.2859 20.7104 28.5507 20.7756C28.9853 20.8787 29.3361 21.1961 29.4815 21.6183C29.5547 21.825 29.5752 22.0467 29.5414 22.2633C29.5075 22.48 29.4203 22.6848 29.2876 22.8594C29.1912 22.9907 29.133 23.1461 29.1196 23.3084C29.1061 23.4707 29.1379 23.6336 29.2114 23.779C29.2849 23.9243 29.3972 24.0465 29.5359 24.1319C29.6747 24.2172 29.8343 24.2625 29.9972 24.2627H33.9638V26.9388C33.5259 26.8755 33.0795 26.9071 32.6549 27.0315C32.2303 27.1559 31.8374 27.3702 31.503 27.6598C31.1685 27.9494 30.9002 28.3076 30.7163 28.71C30.5325 29.1124 30.4373 29.5497 30.4373 29.9922C30.4373 30.4346 30.5325 30.8719 30.7163 31.2743C30.9002 31.6767 31.1685 32.0349 31.503 32.3245C31.8374 32.6141 32.2303 32.8284 32.6549 32.9528C33.0795 33.0772 33.5259 33.1088 33.9638 33.0455V35.7216H23.3862C23.1525 35.7216 22.9283 35.6288 22.763 35.4635C22.5977 35.2982 22.5048 35.074 22.5048 34.8402ZM35.2375 30.9618C35.0903 30.8895 34.9259 30.8595 34.7627 30.8751C34.5994 30.8906 34.4437 30.9512 34.3128 31.0499C34.1164 31.1972 33.8828 31.2869 33.6382 31.309C33.3937 31.331 33.1478 31.2846 32.9282 31.1748C32.7086 31.0649 32.5239 30.8961 32.3948 30.6873C32.2657 30.4784 32.1973 30.2377 32.1973 29.9922C32.1973 29.7466 32.2657 29.5059 32.3948 29.297C32.5239 29.0882 32.7086 28.9194 32.9282 28.8096C33.1478 28.6997 33.3937 28.6533 33.6382 28.6753C33.8828 28.6974 34.1164 28.7871 34.3128 28.9344C34.4438 29.0326 34.5995 29.0924 34.7625 29.1071C34.9256 29.1218 35.0895 29.0908 35.2359 29.0176C35.3823 28.9444 35.5054 28.8319 35.5915 28.6926C35.6776 28.5534 35.7231 28.3929 35.7231 28.2292V24.2627H39.6897C39.8534 24.2627 40.0139 24.2171 40.1531 24.131C40.2924 24.045 40.4049 23.9218 40.4781 23.7754C40.5513 23.629 40.5823 23.4651 40.5676 23.3021C40.5529 23.139 40.4931 22.9833 40.3949 22.8523C40.2476 22.6559 40.1578 22.4223 40.1358 22.1778C40.1137 21.9332 40.1602 21.6873 40.27 21.4677C40.3798 21.2481 40.5486 21.0634 40.7575 20.9343C40.9664 20.8052 41.2071 20.7368 41.4526 20.7368C41.6982 20.7368 41.9389 20.8052 42.1477 20.9343C42.3566 21.0634 42.5254 21.2481 42.6352 21.4677C42.745 21.6873 42.7915 21.9332 42.7695 22.1778C42.7474 22.4223 42.6577 22.6559 42.5104 22.8523C42.4122 22.9833 42.3524 23.139 42.3377 23.3021C42.3229 23.4651 42.3539 23.629 42.4271 23.7754C42.5004 23.9218 42.6129 24.045 42.7521 24.131C42.8914 24.2171 43.0518 24.2627 43.2155 24.2627H47.1856V34.8402C47.1856 35.074 47.0928 35.2982 46.9275 35.4635C46.7622 35.6288 46.538 35.7216 46.3042 35.7216H35.7267V31.7551C35.7274 31.5903 35.682 31.4287 35.5955 31.2885C35.509 31.1482 35.385 31.0351 35.2375 30.9618ZM42.7783 3.98911H53.3559C53.5896 3.98911 53.8138 4.08198 53.9791 4.24729C54.1444 4.41259 54.2373 4.6368 54.2373 4.87057V15.4481H51.5612C51.6245 15.0102 51.5929 14.5638 51.4685 14.1392C51.344 13.7146 51.1298 13.3218 50.8402 12.9873C50.5505 12.6528 50.1924 12.3845 49.79 12.2007C49.3875 12.0168 48.9503 11.9216 48.5078 11.9216C48.0654 11.9216 47.6281 12.0168 47.2257 12.2007C46.8233 12.3845 46.4651 12.6528 46.1755 12.9873C45.8859 13.3218 45.6716 13.7146 45.5472 14.1392C45.4228 14.5638 45.3912 15.0102 45.4545 15.4481H42.7783V12.7729C43.2654 12.8423 43.762 12.7954 44.2275 12.6362C44.7223 12.4677 45.1658 12.1752 45.5156 11.7867C45.8654 11.3981 46.1099 10.9265 46.2257 10.4167C46.3393 9.92774 46.3319 9.41844 46.2041 8.93298C46.0763 8.44753 45.832 8.0006 45.4923 7.63097C45.1526 7.26134 44.7279 6.98018 44.255 6.81189C43.782 6.64359 43.2752 6.59325 42.7783 6.66522V3.98911Z" fill="#CA579F"></path>
  <path d="M12.9551 17.9082L13.0432 17.5257C13.1992 16.7888 13.3976 16.0625 13.6373 15.3476C14.1676 13.8743 14.9927 12.5246 16.0622 11.381C16.7482 10.6912 17.5627 10.1426 18.4598 9.76619C18.569 9.72127 18.668 9.65486 18.7511 9.57092C18.8341 9.48697 18.8994 9.3872 18.9432 9.27753C18.9869 9.16786 19.0081 9.05051 19.0057 8.93247C19.0032 8.81442 18.977 8.69808 18.9287 8.59035C18.8804 8.48261 18.8109 8.38568 18.7244 8.30531C18.6379 8.22494 18.5361 8.16277 18.4252 8.12248C18.3142 8.08219 18.1962 8.06461 18.0783 8.07079C17.9604 8.07696 17.8449 8.10676 17.7388 8.15841C16.6299 8.62823 15.6233 9.31312 14.7797 10.1717C13.5454 11.4891 12.5931 13.0446 11.9811 14.7429C11.7151 15.5259 11.4952 16.3238 11.3226 17.1325L11.2345 17.5204C11.209 17.6334 11.206 17.7503 11.2258 17.8644C11.2455 17.9785 11.2875 18.0876 11.3493 18.1855C11.4112 18.2834 11.4918 18.3682 11.5864 18.4349C11.681 18.5017 11.7879 18.5492 11.9009 18.5746C12.0138 18.6001 12.1307 18.603 12.2448 18.5833C12.359 18.5636 12.4681 18.5216 12.566 18.4598C12.6639 18.3979 12.7486 18.3173 12.8154 18.2227C12.8821 18.1281 12.9296 18.0212 12.9551 17.9082Z" fill="#CA579F"></path>
  <path d="M11.0455 21.6183C11.5323 21.6183 11.927 21.2236 11.927 20.7368C11.927 20.25 11.5323 19.8553 11.0455 19.8553C10.5587 19.8553 10.1641 20.25 10.1641 20.7368C10.1641 21.2236 10.5587 21.6183 11.0455 21.6183Z" fill="#CA579F"></path>
</svg>
