<?xml version="1.0" encoding="UTF-8"?>
<svg xmlns="http://www.w3.org/2000/svg" width="58" height="59" viewBox="0 0 58 59" fill="none">
  <path d="M37.3997 43.8865C37.3997 43.8865 36.6862 46.3004 34.2393 45.701C31.7925 45.1016 25.9973 43.7061 25.9973 43.7061M37.3997 43.8865L51.601 39.6851C51.8819 39.58 55.2267 38.1454 56.68 41.1803C57.9339 44.0311 55.1353 45.7101 54.5788 45.9956L47.7002 49.0382M37.3997 43.8865C37.3997 43.8865 38.3721 41.0301 35.4281 39.8551C27.2691 36.5979 26.2961 36.0472 24.2312 36.0144C17.848 36.0357 16.6913 36.0875 13.5191 37.5073C11.8661 38.248 10.2881 39.1456 8.80671 40.1879C7.84062 40.867 6.76861 41.3813 5.63001 41.6944L1.75516 42.7598C1.53816 42.8195 1.34674 42.9488 1.21032 43.1278C1.0739 43.3068 1.00001 43.5256 1 43.7507V56.6413C1 57.3606 1.71989 57.8573 2.39235 57.602L15.863 52.4877C18.816 51.5252 21.9118 51.4279 24.3913 52.4173L29.6566 54.5193C30.8075 54.916 33.4514 55.5336 36.195 54.1274L36.1973 54.1264L44.0932 50.6336M45.5973 21.9136C45.5978 21.0464 45.4665 20.1841 45.208 19.3563C46.3567 17.965 48.0467 17.0397 49.9713 16.94C53.8017 16.7417 56.9999 19.8201 57 23.6094V28.0358C57 28.7918 56.3871 29.4047 55.6311 29.4047H45.5973M45.5973 21.9136V29.4047M45.5973 21.9136C45.5974 17.1266 41.6486 13.2171 36.8476 13.2815C32.107 13.3452 28.3318 17.2859 28.3318 22.0269M45.5973 29.4047L42.5942 29.4047C42.5942 26.2955 40.0737 23.7749 36.9645 23.7749C33.8553 23.7749 31.3347 26.2955 31.3347 29.4047H28.3318M34.9221 29.2349L36.6859 30.9989L39.2646 28.4202M28.3318 22.0269V29.4047M28.3318 22.0269C28.3314 21.1212 28.4709 20.2207 28.7455 19.3576C27.4488 17.7949 25.4582 16.826 23.2577 16.94C19.6927 17.1246 16.9294 20.1387 16.9294 23.7085V28.0358C16.9294 28.7919 17.5422 29.4047 18.2983 29.4047H20.8656M28.3318 29.4047L24.8092 29.4046M28.099 12.4401C28.099 14.9207 26.0881 16.9315 23.6076 16.9315C21.1271 16.9315 19.1162 14.9207 19.1162 12.4401C19.1162 9.95959 21.1271 7.94873 23.6076 7.94873C26.0881 7.94873 28.099 9.95959 28.099 12.4401ZM42.7704 7.47574C42.7704 10.6822 40.1711 13.2816 36.9646 13.2816C33.7582 13.2816 31.1588 10.6822 31.1588 7.47574C31.1588 4.26927 33.7582 1.66992 36.9646 1.66992C40.1711 1.66992 42.7704 4.26927 42.7704 7.47574ZM54.8128 12.4401C54.8128 14.9207 52.802 16.9315 50.3214 16.9315C47.8409 16.9315 45.8301 14.9207 45.8301 12.4401C45.8301 9.95959 47.8409 7.94873 50.3214 7.94873C52.802 7.94873 54.8128 9.95959 54.8128 12.4401ZM39.1193 24.2024C41.9918 25.3923 43.3559 28.6855 42.1661 31.5581C40.9762 34.4306 37.683 35.7947 34.8105 34.6049C31.9379 33.415 30.5738 30.1218 31.7637 27.2492C32.9535 24.3767 36.2467 23.0126 39.1193 24.2024Z" stroke="#CA579F" stroke-width="2" stroke-miterlimit="10" stroke-linecap="round" stroke-linejoin="round"></path>
</svg>
