<?xml version="1.0" encoding="UTF-8"?>
<svg xmlns="http://www.w3.org/2000/svg" width="53" height="49" viewBox="0 0 53 49" fill="none">
  <path d="M40.2431 35.2447C40.0834 35.2446 39.9268 35.2 39.791 35.1159C39.6552 35.0318 39.5456 34.9115 39.4743 34.7685C39.4031 34.6255 39.3731 34.4655 39.3878 34.3064C39.4025 34.1474 39.4612 33.9955 39.5573 33.868C41.6899 31.0448 42.8388 27.6006 42.8281 24.0625C42.8281 22.9419 42.713 21.8195 42.4861 20.7281C42.4608 20.6167 42.458 20.5015 42.4778 20.389C42.4976 20.2765 42.5396 20.1691 42.6014 20.073C42.6632 19.977 42.7435 19.8942 42.8376 19.8295C42.9318 19.7649 43.0378 19.7196 43.1497 19.6965C43.2615 19.6733 43.3768 19.6726 43.4889 19.6945C43.601 19.7164 43.7076 19.7604 43.8025 19.824C43.8974 19.8875 43.9786 19.9694 44.0415 20.0647C44.1044 20.1601 44.1477 20.267 44.1688 20.3792C44.4197 21.5858 44.5469 22.825 44.5469 24.0625C44.5469 28.007 43.2956 31.7573 40.9306 34.9027C40.8504 35.0091 40.7465 35.0954 40.6272 35.1547C40.5079 35.2141 40.3764 35.2449 40.2431 35.2447ZM9.68375 28.5037C9.48682 28.503 9.29607 28.4349 9.14318 28.3108C8.9903 28.1867 8.88447 28.014 8.84328 27.8214C8.58454 26.5852 8.4538 25.3255 8.45312 24.0625C8.45312 20.1352 9.69234 16.4003 12.0384 13.2653C12.106 13.1749 12.1908 13.0987 12.2878 13.0411C12.3849 12.9834 12.4923 12.9455 12.604 12.9293C12.7158 12.9132 12.8296 12.9193 12.939 12.9471C13.0483 12.975 13.1512 13.0241 13.2416 13.0917C13.332 13.1593 13.4082 13.2441 13.4658 13.3411C13.5234 13.4382 13.5614 13.5456 13.5775 13.6573C13.5937 13.769 13.5876 13.8829 13.5598 13.9922C13.5319 14.1016 13.4828 14.2044 13.4152 14.2948C11.2995 17.1108 10.1608 20.5404 10.1719 24.0625C10.1719 25.2055 10.2905 26.3519 10.5259 27.4673C10.5523 27.5926 10.5504 27.7221 10.5203 27.8465C10.4902 27.9709 10.4326 28.087 10.3519 28.1863C10.2712 28.2857 10.1693 28.3657 10.0537 28.4206C9.93814 28.4755 9.81173 28.5039 9.68375 28.5037ZM29.0781 32.6562H23.9219C23.694 32.6562 23.4754 32.5657 23.3142 32.4045C23.153 32.2434 23.0625 32.0248 23.0625 31.7969V27.5H18.7656C18.5377 27.5 18.3191 27.4095 18.158 27.2483C17.9968 27.0871 17.9062 26.8685 17.9062 26.6406V21.4844C17.9062 21.2565 17.9968 21.0379 18.158 20.8767C18.3191 20.7155 18.5377 20.625 18.7656 20.625H23.0625V16.3281C23.0625 16.1002 23.153 15.8816 23.3142 15.7205C23.4754 15.5593 23.694 15.4688 23.9219 15.4688H29.0781C29.306 15.4688 29.5246 15.5593 29.6858 15.7205C29.847 15.8816 29.9375 16.1002 29.9375 16.3281V20.625H34.2344C34.4623 20.625 34.6809 20.7155 34.842 20.8767C35.0032 21.0379 35.0938 21.2565 35.0938 21.4844V26.6406C35.0938 26.8685 35.0032 27.0871 34.842 27.2483C34.6809 27.4095 34.4623 27.5 34.2344 27.5H29.9375V31.7969C29.9375 32.0248 29.847 32.2434 29.6858 32.4045C29.5246 32.5657 29.306 32.6562 29.0781 32.6562ZM24.7812 30.9375H28.2188V26.6406C28.2188 26.4127 28.3093 26.1941 28.4705 26.033C28.6316 25.8718 28.8502 25.7812 29.0781 25.7812H33.375V22.3438H29.0781C28.8502 22.3438 28.6316 22.2532 28.4705 22.092C28.3093 21.9309 28.2188 21.7123 28.2188 21.4844V17.1875H24.7812V21.4844C24.7812 21.7123 24.6907 21.9309 24.5295 22.092C24.3684 22.2532 24.1498 22.3438 23.9219 22.3438H19.625V25.7812H23.9219C24.1498 25.7812 24.3684 25.8718 24.5295 26.033C24.6907 26.1941 24.7812 26.4127 24.7812 26.6406V30.9375ZM30.1798 48.125H21.1719C19.4842 48.1231 17.8185 47.7425 16.2975 47.0112L10.2767 44.0859C8.75473 43.3501 7.08599 42.9682 5.39547 42.9688H1.57812C1.3502 42.9688 1.13162 42.8782 0.970455 42.717C0.809291 42.5559 0.71875 42.3373 0.71875 42.1094C0.71875 41.8815 0.809291 41.6629 0.970455 41.5017C1.13162 41.3405 1.3502 41.25 1.57812 41.25H5.39547C7.34797 41.25 9.24203 41.6831 11.0244 42.5391L17.0434 45.4627C18.332 46.0811 19.7426 46.4035 21.1719 46.4062H30.008L37.5138 43.3091C37.5138 43.2369 37.6152 42.5717 37.2852 42.0063C36.7816 41.14 35.618 41.1125 34.7362 41.2414C33.4558 41.4391 32.397 41.7948 31.4638 42.1094L31.1097 42.228C30.8943 42.2963 30.6607 42.2771 30.4594 42.1745C30.2581 42.0718 30.1053 41.894 30.0341 41.6796C29.9629 41.4651 29.9791 41.2313 30.0791 41.0286C30.179 40.826 30.3548 40.6709 30.5683 40.5969L30.9155 40.4817C31.9158 40.1448 33.0484 39.7633 34.4819 39.5433C38.0259 39.0277 38.9111 41.2414 39.1019 41.9306C39.4164 43.0667 39.1552 44.4881 38.1737 44.8989L30.5064 48.0631C30.4022 48.1035 30.2916 48.1244 30.1798 48.125ZM18.9977 35.8823C18.8338 35.8824 18.6734 35.8356 18.5351 35.7477C18.3969 35.6597 18.2867 35.5341 18.2173 35.3856C16.533 31.7608 12.157 31.2417 8.90344 32.5909C8.79874 32.634 8.68664 32.6562 8.57344 32.6562H1.57812C1.3502 32.6562 1.13162 32.5657 0.970455 32.4045C0.809291 32.2434 0.71875 32.0248 0.71875 31.7969C0.71875 31.569 0.809291 31.3504 0.970455 31.1892C1.13162 31.028 1.3502 30.9375 1.57812 30.9375H8.40672C13.0594 29.0898 17.9217 30.6762 19.778 34.662C19.8381 34.793 19.8644 34.9371 19.8544 35.0809C19.8444 35.2247 19.7985 35.3637 19.7208 35.4851C19.6432 35.6066 19.5363 35.7066 19.4099 35.776C19.2836 35.8454 19.1418 35.882 18.9977 35.8823Z" fill="#CA579F"></path>
  <path d="M27.1428 44.0395C27.0302 44.0393 26.9187 44.0171 26.8145 43.9742L16.973 39.8888C16.8687 39.8454 16.774 39.782 16.6942 39.702C16.6145 39.6221 16.5512 39.5272 16.5081 39.4228C16.465 39.3185 16.4429 39.2066 16.4431 39.0937C16.4432 38.9808 16.4656 38.869 16.5089 38.7647C16.5522 38.6604 16.6157 38.5657 16.6956 38.4859C16.7756 38.4062 16.8704 38.3429 16.9748 38.2999C17.0792 38.2568 17.1911 38.2347 17.304 38.2348C17.4169 38.2349 17.5287 38.2573 17.633 38.3006L26.61 42.0269C26.9864 40.2548 26.017 38.8764 23.7139 37.9225L18.6556 35.8222C18.445 35.7347 18.2778 35.5671 18.1908 35.3563C18.1038 35.1455 18.104 34.9087 18.1916 34.6981C18.2791 34.4875 18.4467 34.3203 18.6575 34.2333C18.8683 34.1463 19.105 34.1465 19.3156 34.2341L24.3722 36.3344C27.9145 37.8022 29.2139 40.4164 27.9369 43.505C27.8939 43.6096 27.8306 43.7046 27.7507 43.7846C27.6707 43.8646 27.5757 43.9278 27.4711 43.9708C27.3677 44.0164 27.2558 44.0398 27.1428 44.0395ZM17.5127 8.66078C14.8091 8.66078 14.07 6.81484 13.8981 6.19609C13.5836 5.06 13.8448 3.63859 14.8263 3.22781L22.4936 0.0635937C22.5974 0.0219052 22.7083 0.000324745 22.8202 0H31.8264C33.5056 0 35.1453 0.374688 36.7008 1.11375L42.7216 4.03906C44.2667 4.77984 45.9116 5.15625 47.6045 5.15625H51.4219C51.6498 5.15625 51.8684 5.24679 52.0295 5.40796C52.1907 5.56912 52.2812 5.7877 52.2812 6.01563C52.2812 6.24355 52.1907 6.46213 52.0295 6.6233C51.8684 6.78446 51.6498 6.875 51.4219 6.875H47.6045C45.6549 6.87598 43.7305 6.43526 41.9756 5.58594L35.9566 2.66406C34.6684 2.04425 33.2576 1.72122 31.8281 1.71875H22.992L15.4845 4.81594C15.4845 4.88813 15.3831 5.55328 15.7131 6.11875C16.2184 6.985 17.3786 7.0125 18.262 6.88359C19.5425 6.68594 20.6012 6.33016 21.5345 6.01563L21.8886 5.89703C21.9961 5.85976 22.11 5.84421 22.2236 5.8513C22.3372 5.85839 22.4482 5.88797 22.5503 5.93832C22.6523 5.98868 22.7434 6.0588 22.8181 6.14462C22.8929 6.23045 22.9498 6.33027 22.9857 6.43828C23.0215 6.54629 23.0356 6.66035 23.027 6.77384C23.0184 6.88732 22.9874 6.99797 22.9357 7.09936C22.884 7.20075 22.8126 7.29086 22.7258 7.36447C22.639 7.43807 22.5385 7.4937 22.43 7.52813L22.0828 7.64328C21.0825 7.98016 19.9498 8.36172 18.5164 8.58172C18.1843 8.63333 17.8488 8.65976 17.5127 8.66078ZM40.6952 17.9523C37.4467 17.9523 34.5558 16.3298 33.222 13.463C33.1359 13.2576 33.1327 13.0268 33.2132 12.8192C33.2936 12.6115 33.4513 12.443 33.6532 12.3492C33.8552 12.2553 34.0857 12.2433 34.2962 12.3158C34.5068 12.3882 34.6812 12.5394 34.7827 12.7377C36.4653 16.3608 40.8395 16.8781 44.0966 15.5323C44.2016 15.4907 44.3136 15.4691 44.4266 15.4688H51.4219C51.6498 15.4688 51.8684 15.5593 52.0295 15.7205C52.1907 15.8816 52.2812 16.1002 52.2812 16.3281C52.2812 16.556 52.1907 16.7746 52.0295 16.9358C51.8684 17.097 51.6498 17.1875 51.4219 17.1875H44.5933C43.287 17.7048 41.9636 17.9523 40.6952 17.9523Z" fill="#CA579F"></path>
  <path d="M34.0144 13.9563C33.9012 13.9563 33.789 13.9341 33.6844 13.8909L28.6278 11.7906C25.0855 10.3228 23.7861 7.70859 25.0631 4.62C25.1057 4.51509 25.1687 4.41968 25.2484 4.33932C25.3282 4.25897 25.4231 4.19527 25.5277 4.15193C25.6323 4.10859 25.7445 4.08647 25.8577 4.08686C25.9709 4.08726 26.0829 4.11015 26.1872 4.15422L36.0288 8.23969C36.133 8.28302 36.2277 8.34648 36.3075 8.42642C36.3873 8.50636 36.4505 8.60123 36.4936 8.70561C36.5367 8.80999 36.5588 8.92183 36.5587 9.03476C36.5585 9.14768 36.5361 9.25947 36.4928 9.36375C36.4495 9.46803 36.386 9.56275 36.3061 9.64251C36.2261 9.72226 36.1313 9.78549 36.0269 9.82858C35.9225 9.87167 35.8107 9.89379 35.6977 9.89365C35.5848 9.89352 35.473 9.87115 35.3688 9.82781L26.3917 6.10156C26.0153 7.87359 26.9847 9.25203 29.2878 10.2059L34.3461 12.3062C34.4504 12.3495 34.5452 12.4129 34.625 12.4929C34.7048 12.5728 34.768 12.6677 34.8111 12.7721C34.8542 12.8765 34.8763 12.9884 34.8762 13.1013C34.876 13.2142 34.8536 13.326 34.8102 13.4303C34.7435 13.5862 34.6326 13.7192 34.4912 13.8127C34.3497 13.9062 34.1839 13.9561 34.0144 13.9563ZM37.6977 37.8727C37.5278 37.8726 37.3618 37.8223 37.2206 37.7279C37.0793 37.6336 36.9692 37.4996 36.9041 37.3427C36.839 37.1858 36.8218 37.0132 36.8548 36.8466C36.8877 36.68 36.9693 36.5268 37.0892 36.4066C37.4261 36.0714 38.0294 36.0113 38.3645 36.3464C38.6997 36.6816 38.7598 37.1663 38.4247 37.5014L38.3044 37.6217C38.2247 37.7014 38.1301 37.7646 38.026 37.8077C37.9219 37.8507 37.8103 37.8728 37.6977 37.8727ZM15.3539 12.0914C15.1834 12.0914 15.0168 12.0407 14.8753 11.9457C14.7337 11.8507 14.6236 11.7158 14.5589 11.5581C14.4943 11.4004 14.478 11.227 14.5121 11.06C14.5462 10.8929 14.6293 10.7399 14.7506 10.6202L14.8727 10.4998C14.9526 10.4185 15.0478 10.3539 15.1529 10.3098C15.2581 10.2656 15.3709 10.2429 15.4849 10.2428C15.5989 10.2427 15.7118 10.2653 15.817 10.3092C15.9222 10.3532 16.0176 10.4176 16.0976 10.4988C16.1776 10.58 16.2407 10.6763 16.2832 10.7821C16.3257 10.8879 16.3466 11.001 16.3449 11.115C16.3432 11.229 16.3188 11.3415 16.2732 11.446C16.2276 11.5505 16.1617 11.6449 16.0792 11.7236L15.9572 11.8439C15.7967 12.0029 15.5798 12.0919 15.3539 12.0914Z" fill="#CA579F"></path>
</svg>
