<?xml version="1.0" encoding="UTF-8"?>
<svg xmlns="http://www.w3.org/2000/svg" width="48" height="57" viewBox="0 0 48 57" fill="none">
  <path d="M23.9963 20.2359C22.7759 20.2361 21.5827 19.8744 20.5679 19.1965C19.553 18.5185 18.7619 17.5549 18.2948 16.4274C17.8276 15.2998 17.7052 14.0591 17.9432 12.8621C18.1812 11.665 18.7688 10.5654 19.6318 9.70235C20.4947 8.83928 21.5942 8.25149 22.7912 8.01332C23.9882 7.77515 25.229 7.8973 26.3566 8.36431C27.4842 8.83132 28.4479 9.62222 29.126 10.637C29.8041 11.6518 30.166 12.8448 30.166 14.0653C30.164 15.7009 29.5135 17.269 28.3572 18.4257C27.2008 19.5825 25.632 20.2335 23.9963 20.2359ZM23.9963 9.76969C23.1467 9.7695 22.3161 10.0213 21.6096 10.4932C20.903 10.9651 20.3523 11.6359 20.027 12.4208C19.7018 13.2057 19.6166 14.0694 19.7822 14.9028C19.9478 15.7361 20.3569 16.5016 20.9576 17.1024C21.5583 17.7033 22.3237 18.1125 23.157 18.2783C23.9903 18.4442 24.8541 18.3591 25.6391 18.034C26.424 17.7089 27.095 17.1584 27.567 16.4519C28.0391 15.7455 28.291 14.9149 28.291 14.0653C28.2898 12.9267 27.8371 11.8351 27.0322 11.0299C26.2272 10.2246 25.1349 9.77142 23.9963 9.76969Z" fill="#CA579F"></path>
  <path d="M23.9963 28.1325C22.3417 28.1316 21.1267 27.1941 21.0376 25.8516L20.9035 24.7406C20.1026 24.5072 19.33 24.1856 18.6001 23.7816L18.1342 24.1041C17.1235 24.9459 15.6282 24.7369 14.477 23.5847C13.3257 22.4325 13.1176 20.9391 13.9576 19.9275L14.2801 19.4616C13.876 18.7321 13.5546 17.9598 13.322 17.1591L12.1595 17.0194C10.8676 16.935 9.93009 15.72 9.92915 14.0662C9.92821 12.4125 10.8667 11.1966 12.2092 11.1066L13.322 10.9734C13.5546 10.1724 13.876 9.39977 14.2801 8.67L13.9576 8.20406C13.1176 7.19156 13.3257 5.69813 14.477 4.54781C15.6254 3.3975 17.1207 3.18375 18.1342 4.0275L18.6001 4.35C19.3296 3.94607 20.1019 3.62471 20.9026 3.39188L21.0423 2.22938C21.1266 0.938438 22.3417 0.0009375 23.9954 0C25.6482 0 26.8651 0.9375 26.9551 2.28L27.0891 3.39188C27.8902 3.62454 28.6628 3.94591 29.3926 4.35L29.8585 4.02656C30.872 3.1875 32.3654 3.39656 33.5148 4.54688C34.6641 5.69719 34.8741 7.19156 34.0351 8.20312L33.7126 8.66906C34.1167 9.39851 34.438 10.1708 34.6707 10.9716L35.8323 11.1103C37.1251 11.1966 38.0626 12.4134 38.0626 14.0672C38.0626 15.7209 37.1241 16.9359 35.7817 17.025L34.6716 17.1591C34.4383 17.96 34.1166 18.7326 33.7126 19.4625L34.0351 19.9284C34.876 20.9409 34.666 22.4353 33.5148 23.5856C32.3635 24.7359 30.872 24.9478 29.8585 24.105L29.3926 23.7825C28.6631 24.1866 27.8909 24.508 27.0901 24.7406L26.9513 25.9031C26.866 27.1959 25.6482 28.1325 23.9963 28.1325ZM18.5598 21.7331C18.7361 21.7329 18.9089 21.7823 19.0585 21.8756C19.9532 22.4377 20.9364 22.8447 21.9667 23.0794C22.1549 23.1226 22.3253 23.2228 22.4545 23.3665C22.5837 23.5101 22.6654 23.6901 22.6885 23.8819L22.9042 25.6791C22.9304 26.0597 23.4779 26.2575 23.9954 26.2575C24.5129 26.2575 25.0623 26.0597 25.0838 25.7278L25.3041 23.8809C25.3274 23.6893 25.4092 23.5095 25.5384 23.3661C25.6676 23.2226 25.8379 23.1225 26.026 23.0794C27.0565 22.8445 28.04 22.4376 28.9351 21.8756C29.0904 21.7783 29.2709 21.7286 29.4542 21.7328C29.6375 21.7369 29.8156 21.7947 29.9663 21.8991L30.9629 22.5891C31.7082 23.1009 33.0273 21.7678 32.5201 21.0309L31.831 20.0344C31.7266 19.8837 31.6686 19.7057 31.6643 19.5224C31.6599 19.3391 31.7094 19.1586 31.8067 19.0031C32.3689 18.1081 32.7762 17.1246 33.0113 16.0941C33.0545 15.9059 33.1546 15.7356 33.298 15.6064C33.4415 15.4773 33.6213 15.3955 33.8129 15.3722L35.6091 15.1566C35.9898 15.1303 36.1876 14.5828 36.1876 14.0653C36.1876 13.5478 35.9907 12.9994 35.6588 12.9778L33.8129 12.7575C33.6213 12.7342 33.4415 12.6524 33.298 12.5232C33.1546 12.3941 33.0545 12.2238 33.0113 12.0356C32.7762 11.0051 32.3689 10.0216 31.8067 9.12656C31.7093 8.97121 31.6596 8.79072 31.6638 8.60742C31.668 8.42413 31.7258 8.24608 31.8301 8.09531L32.5201 7.09781C33.032 6.35437 31.6988 5.03531 30.9629 5.54156L29.9654 6.23063C29.8146 6.33494 29.6366 6.39276 29.4533 6.39692C29.27 6.40109 29.0895 6.35142 28.9342 6.25406C28.0393 5.6922 27.0562 5.28524 26.026 5.05031C25.8377 5.00712 25.6674 4.90686 25.5382 4.76324C25.409 4.61961 25.3272 4.43961 25.3041 4.24781L25.0885 2.45156C25.0613 2.07094 24.5129 1.87313 23.9963 1.87313C23.4788 1.87313 22.9304 2.07094 22.9079 2.40188L22.6885 4.24875C22.6653 4.44038 22.5834 4.62017 22.4543 4.76362C22.3251 4.90706 22.1548 5.00717 21.9667 5.05031C20.936 5.28519 19.9525 5.69248 19.0576 6.255C18.9022 6.35236 18.7217 6.40203 18.5385 6.39786C18.3552 6.3937 18.1771 6.33588 18.0263 6.23156L17.0298 5.54156C16.2845 5.02969 14.9654 6.36188 15.4726 7.09875L16.1617 8.09625C16.2661 8.24693 16.3241 8.42493 16.3284 8.60822C16.3328 8.79151 16.2832 8.97206 16.186 9.1275C15.6238 10.0223 15.2166 11.0054 14.9813 12.0356C14.9382 12.2238 14.8381 12.3941 14.6946 12.5232C14.5512 12.6524 14.3714 12.7342 14.1798 12.7575L12.3826 12.9731C12.002 13.0003 11.8042 13.5487 11.8042 14.0662C11.8042 14.5837 12.001 15.1312 12.332 15.1537L14.1798 15.3731C14.3714 15.3964 14.5512 15.4782 14.6946 15.6074C14.8381 15.7366 14.9382 15.9068 14.9813 16.095C15.2165 17.1255 15.6237 18.109 16.186 19.0041C16.2832 19.1595 16.3328 19.34 16.3284 19.5233C16.3241 19.7066 16.2661 19.8846 16.1617 20.0353L15.4726 21.0319C14.9607 21.7772 16.292 23.0962 17.0298 22.5891L18.0263 21.9C18.1833 21.7911 18.3688 21.7329 18.5598 21.7331Z" fill="#CA579F"></path>
  <path d="M47.3251 39.1819C47.3014 37.191 46.574 35.2727 45.2717 33.7667C43.9694 32.2607 42.1761 31.2641 40.2095 30.9534L35.3907 30.2231L30.3798 26.9091C30.2773 26.8407 30.1625 26.7932 30.0417 26.7693C29.9209 26.7454 29.7966 26.7454 29.6758 26.7696C29.5551 26.7937 29.4403 26.8413 29.3379 26.9098C29.2356 26.9783 29.1478 27.0663 29.0795 27.1688L23.9945 34.3875L18.9695 27.3506L18.8448 27.1772C18.7027 26.9807 18.49 26.847 18.2514 26.804C18.0128 26.761 17.7668 26.8121 17.5651 26.9466L12.3432 30.4247C12.3329 30.4322 12.3263 30.4434 12.317 30.4509L7.57603 31.2947C5.61841 31.6432 3.84753 32.6738 2.57755 34.2038C1.30757 35.7338 0.620601 37.6642 0.638526 39.6525L0.750088 50.5547C0.748938 51.1788 0.96123 51.7845 1.35173 52.2714C1.74224 52.7582 2.28747 53.0969 2.89696 53.2313C8.96925 54.6584 15.1274 55.6918 21.3329 56.325C23.146 56.5121 24.9741 56.4998 26.7845 56.2884C32.9851 55.7288 41.8313 53.6531 45.3423 52.7878C45.9471 52.6432 46.4844 52.2965 46.8654 51.805C47.2464 51.3135 47.4482 50.7068 47.4376 50.085L47.3251 39.1819ZM33.9545 31.5431L30.032 40.1888L25.2395 35.8856L30.0582 29.0409L33.9545 31.5431ZM17.9204 29.1075L22.7626 35.8866L17.9767 40.1878L14.0701 31.6078L17.9204 29.1075ZM26.5332 39.57L25.6032 42.2297H22.4185L21.4642 39.5784L24.0076 37.3003L26.5332 39.57ZM2.62509 50.5444L2.51259 39.6319C2.49989 38.0866 3.03489 36.5867 4.02269 35.3983C5.01049 34.2099 6.38727 33.4097 7.90884 33.1397L12.347 32.3494L16.8001 42.1303C16.8625 42.2631 16.955 42.3796 17.0702 42.4705C17.1854 42.5614 17.3202 42.6243 17.4639 42.6541C17.6076 42.6839 17.7563 42.6799 17.8981 42.6424C18.04 42.6048 18.1712 42.5348 18.2813 42.4378L19.9576 40.9303L20.8773 43.4897C20.94 43.6582 21.0501 43.805 21.1942 43.9125L20.537 54.3769C14.7437 53.7109 8.99262 52.718 3.31134 51.4031C3.11681 51.3585 2.94311 51.2493 2.81851 51.0934C2.69392 50.9375 2.62574 50.744 2.62509 50.5444ZM22.4063 54.51L23.0626 44.1084H24.9488L25.5938 54.4922C25.5432 54.4959 22.4635 54.5128 22.4073 54.5109L22.4063 54.51ZM44.897 50.9663C39.1556 52.4254 33.3346 53.5514 27.4632 54.3384L26.8154 43.9313C26.9714 43.8194 27.0892 43.6623 27.1529 43.4813L28.0454 40.9266L29.7292 42.4388C29.8395 42.5355 29.9708 42.6053 30.1127 42.6426C30.2547 42.6799 30.4033 42.6837 30.547 42.6536C30.6906 42.6236 30.8253 42.5607 30.9405 42.4697C31.0556 42.3787 31.148 42.2622 31.2104 42.1294L35.7292 32.1703L39.9179 32.805C41.4465 33.0471 42.8402 33.822 43.8526 34.9926C44.865 36.1632 45.4309 37.654 45.4501 39.2016L45.5626 50.1047C45.5649 50.3023 45.5006 50.4949 45.38 50.6514C45.2594 50.8079 45.0896 50.9191 44.8979 50.9672L44.897 50.9663Z" fill="#CA579F"></path>
</svg>
